<svg id="Layer_1" data-name="Layer 1" xmlns="http://www.w3.org/2000/svg" viewBox="0 0 740 800"><defs><style>.cls-1{fill:#bc9b54;}</style></defs><path class="cls-1" d="M321.71911,730.03662a5.14784,5.14784,0,1,0,5.15085,5.1477l-.00011-.03466a5.11445,5.11445,0,0,0-5.1158-5.11315Z" transform="translate(0.27119 -0.26271)"/><path class="cls-1" d="M85.75994,255.56706a35.89332,35.89332,0,0,0-2.50576,3.89564,32.40471,32.40471,0,0,0-4.10666,12.76521,8.97984,8.97984,0,0,1,7.41288-4.38261,8.03971,8.03971,0,0,1,7.13446,4.487,14.292,14.292,0,0,0,1.6705,3.47826,7.37981,7.37981,0,0,0,3.689,1.70434,38.83233,38.83233,0,0,0,2.57536-16.17392,65.845,65.845,0,0,0-2.92339-16.17391s-4.38508,2.4-4.8027,2.67825a34.79819,34.79819,0,0,0-4.38509,3.47826A35.41336,35.41336,0,0,0,85.75994,255.56706Z" transform="translate(0.27119 -0.26271)"/><path class="cls-1" d="M87.32605,245.4801c-.24362.93912-.45243,1.91306-.62644,2.887l1.6357-1.39131,1.00927-.8h.174l.55684-.38261a15.21005,15.21005,0,0,1,1.5313-1.07825,19.69807,19.69807,0,0,1,2.05333-1.287c.59164-.38262,1.14848-.69565,1.67051-.97391l.93966-.45217.73084-.34782h.24362l1.87932-.90435,2.26215-1.0087h0l.66124,2.33043.348,1.14783.27841.86956h0c.20881.66088.348,1.287.522,1.91306v.27826c.27841,1.04349.55683,2.12175.80044,3.16523a8.89835,8.89835,0,0,1,.174.93912c.174.76523.348,1.53045.48723,2.29567v.20869a14.396,14.396,0,0,0,.31322,2.087h0a2.798,2.798,0,0,0,.174,1.18259c.24362-.52174.45243-1.04349.66125-1.6a3.85974,3.85974,0,0,0,.24361-.55654c.24362-.66088.48723-1.32173.696-1.98261s.31322-1.18259.45242-1.73913a30.76514,30.76514,0,0,0,.55684-3.02609,36.12067,36.12067,0,0,0,.38283-5.113v-2.713h0v-2.713a20.86206,20.86206,0,0,0-.31322-2.12174c-.20882-1.32173-.45243-2.6087-.76565-3.89566v-.52175a6.26958,6.26958,0,0,0-.348-1.39131,2.572,2.572,0,0,1,0-.487h0l-.41763-1.49565-.522-.45214a7.96105,7.96105,0,0,0-.27842-.97391h-1.21808l-.90486.4174h-.31322l-.41763.24348-1.18327.66088a31.52959,31.52959,0,0,0-3.48023,2.46956l-.41763.34782a24.63632,24.63632,0,0,0-2.05333,1.80868,25.99084,25.99084,0,0,0-1.91412,1.98261l-.62644.69564q-.93968,1.14783-1.77492,2.4a31.29836,31.29836,0,0,0-1.80971,3.16523l-.59164,1.32173a32.72,32.72,0,0,0-1.14848,3.13044Z" transform="translate(0.27119 -0.26271)"/><path class="cls-1" d="M70.09894,520.541l1.80971-1.66955,1.98373-1.80871,2.01853-1.87824,2.22734-2.05216.24362-.20869L99.0544,493.89754l4.14147-3.82611,1.07886-.97391-.522-.313c-.76565-.52171-1.5661-1.00867-2.36655-1.46086a50.23941,50.23941,0,0,0-16.35706-5.70435l-2.471-.38261-2.71458-.20868H72.6395a25.9902,25.9902,0,0,0-4.6287.62606,2.34976,2.34976,0,0,0-1.07887.17392l-1.07886.24351-1.21808.313c-.76565.20868-1.56611.34784-2.297.59129a50.09461,50.09461,0,0,0-12.94643,6.0522c-.80045.52172-1.5313,1.04349-2.26215,1.6s-1.46169,1.04349-2.15774,1.6A51.06689,51.06689,0,0,0,32.44292,507.602c-.522.97391-.97447,1.94782-1.4269,2.92173s-.80045,1.94781-1.18327,2.95654a49.47,49.47,0,0,0,1.21808,38.26087c.38282.90433.83525,1.80871,1.28768,2.67828s1.00926,1.77389,1.5313,2.64345a50.0615,50.0615,0,0,0,68.282,17.39131c.97447-.5913,1.98373-1.1826,2.92339-1.80871s1.6009-1.1826,2.40136-1.80871l2.12293-1.70437c.90486-.8,1.80972-1.56521,2.645-2.4s1.46169-1.5652,2.19255-2.36519,1.35728-1.6,1.98373-2.4l.27842-.38261A49.89484,49.89484,0,0,0,127.13982,531.115v-.86956a51.93738,51.93738,0,0,0-1.42689-10.99132,55.25012,55.25012,0,0,0-2.645-8l-.174-.313-20.67253,19.06086-2.43616,2.19132-2.36656,2.19132h0L95.435,536.19326l-2.01853,1.84347L89.30979,541.828a3.09841,3.09841,0,0,1-2.12294.83481,3.13006,3.13006,0,0,1-2.12293-5.42608l3.65423-3.47826,2.01853-1.84348,1.98372-1.84347,3.48023-3.47826,2.471-2.29567,2.54057-2.33043,18.54959-17.07827a50.72085,50.72085,0,0,0-10.44067-12.313l-5.95118,5.4609-3.48023,3.26957-3.48022,3.02607L80.36561,519.115l-1.98373,1.84347L76.36335,522.802l-2.19254,2.01739a3.09843,3.09843,0,0,1-2.12294.83481,3.13007,3.13007,0,0,1-2.12294-5.42608Z" transform="translate(0.27119 -0.26271)"/><path class="cls-1" d="M108.3814,320.57574l.45242-.24347c.93967-.5913,1.87933-1.14784,2.85379-1.66958l.41762-.24348,4.35028-2.29566c8.31773-12.27826,10.8931-29.53043,11.06711-43.47826v-2.78262l-.90485.66087-.66124.487c-1.74011,1.287-3.48022,2.46956-5.08112,3.47826-.38283.24348-.76566.52174-1.14848.73043-2.12294,1.35652-4.14146,2.46956-6.0556,3.47826a5.0821,5.0821,0,0,1,.83526.5913,6.26177,6.26177,0,0,1,1.35729,1.56521,5.7376,5.7376,0,0,1,.83526,1.91305,10.04631,10.04631,0,0,1,.27842,3.2,4.51824,4.51824,0,0,0,0,.97391,1.91221,1.91221,0,0,0,0,.90436,4.17455,4.17455,0,0,0,1.42689,1.6l.80045.73043a7.54534,7.54534,0,0,1,2.471,7.33913,7.341,7.341,0,0,1-6.02079,6.22609h-.45243a2.95874,2.95874,0,0,0-1.14848.52174,4.869,4.869,0,0,0-1.07887,1.91306,10.43368,10.43368,0,0,1-1.87933,3.30434v.34787a6.54229,6.54229,0,0,1-1.42689,1.113,7.17166,7.17166,0,0,1-1.94892.83478l-1.14847.27826H105.2492a10.44775,10.44775,0,0,1-1.07886,0,7.7257,7.7257,0,0,1-5.35955-3.93042,5.91526,5.91526,0,0,0-2.08814-1.94782c-2.50576-1.21738-3.48022-.27827-6.22959-.313a8.98241,8.98241,0,0,1-5.18554-1.73913l-1.11367-.73043a163.5632,163.5632,0,0,0-2.645,29.11305,22.23642,22.23642,0,0,1,10.19706-8.17391,29.56465,29.56465,0,0,0-8.49176,12.48692,4.97721,4.97721,0,0,0-2.88858,1.73913,12.88375,12.88375,0,0,1,9.04858,0l.59164-.83477A61.58606,61.58606,0,0,1,108.3814,320.57574Z" transform="translate(0.27119 -0.26271)"/><path class="cls-1" d="M116.94275,171.04532q-.93966-1.66958-1.98372-3.23479l-.66124-.90434-.20882-.34782a39.26429,39.26429,0,0,0-7.62169,13.07825,52.56687,52.56687,0,0,0-2.33175,9.25218l1.11367,1.94783c1.04406,1.913,2.01853,3.7913,2.88858,5.66957l.59164-.55652a21.70064,21.70064,0,0,1,7.37807-13.913c.59163-.487,1.25288-.93913,1.87933-1.39131a20.5672,20.5672,0,0,1,1.80971-1.21738v-.38261c0-.10435.174-.73044.24362-1.07827s-.348-.97391-.522-1.46086a41.37775,41.37775,0,0,0-2.29695-5.04348A.76522.76522,0,0,0,116.94275,171.04532Z" transform="translate(0.27119 -0.26271)"/><path class="cls-1" d="M119.3093,166.83662a6.05559,6.05559,0,0,0,.38283.62609,37.07012,37.07012,0,0,1,2.54056,4.86957c0-.24348.38283-.41739.522-.66086a18.26293,18.26293,0,0,1,2.471-2.887,20.87854,20.87854,0,0,1,2.645-2.12174,19.32122,19.32122,0,0,1,2.85378-1.56522,19.74438,19.74438,0,0,0,0-4.27826,24.09169,24.09169,0,0,0-.348-2.713,17.385,17.385,0,0,0-1.3921-4.10435c-.348-.8-1.39209-2.887-1.84451-3.687A23.26437,23.26437,0,0,0,119.3093,166.83662Z" transform="translate(0.27119 -0.26271)"/><path class="cls-1" d="M134.37867,168.19314a16.25988,16.25988,0,0,0-2.50577.93913,16.53259,16.53259,0,0,0-2.78417,1.73913,16.1793,16.1793,0,0,0-2.22735,2.15652,13.634,13.634,0,0,0-2.05333,3.30435l-.20882.52175h.45244l1.39209-.52175.45243-.17391,2.50577-.93913h0l.27842,1.07827v.48695l.38283,1.42609v.38261h0l.27842,1.04347v1.46088a11.12244,11.12244,0,0,0,.24362,1.42609.59093.59093,0,0,0,0,.24347l.24361-.313a26.29192,26.29192,0,0,0,2.43616-4.3826l.27843-1.0087a19.12384,19.12384,0,0,0,.522-2.26088,18.87681,18.87681,0,0,0,.27842-2.713,17.83243,17.83243,0,0,0-.20882-2.887,6.71111,6.71111,0,0,0,0-.93913Z" transform="translate(0.27119 -0.26271)"/><path class="cls-1" d="M181.11807,506.767l-22.55185-6.95652a45.799,45.799,0,0,1-.45243,5.287,206.62356,206.62356,0,0,1-17.67953,63.16523,32.22035,32.22035,0,0,1,6.75163,6.26088A171.5805,171.5805,0,0,1,181.11807,506.767Z" transform="translate(0.27119 -0.26271)"/><path class="cls-1" d="M276.23258,719.60183a5.012,5.012,0,0,0-6.256,3.32865q-.02274.07452-.04314.14961h0a5.18194,5.18194,0,0,0,3.23661,6.46957,5.012,5.012,0,0,0,6.256-3.32864q.02276-.07452.04315-.14962A5.18195,5.18195,0,0,0,276.23258,719.60183Z" transform="translate(0.27119 -0.26271)"/><path class="cls-1" d="M231.54652,701.3062a4.94327,4.94327,0,0,0-6.65441,2.13512q-.0321.06241-.06242.12573h0a5.14641,5.14641,0,0,0,2.19723,6.941l.03011.0155a4.94326,4.94326,0,0,0,6.65441-2.13512q.0321-.06241.06242-.12573a5.14641,5.14641,0,0,0-2.19723-6.941Z" transform="translate(0.27119 -0.26271)"/><path class="cls-1" d="M123.59,608.22791a1.21571,1.21571,0,0,1,0,.27826l2.74938,4.10433,2.993,4.20871,1.28768,1.7739,1.70532,2.22608h0l1.84451,2.4a371.16654,371.16654,0,0,0,54.3263,53.66959c2.61017,2.19133,5.28994,4.34783,8.03932,6.53915l3.75865,3.02607.97446.73046.41762.313,1.98373,1.56521.20881.17392,1.56611-2.29566,1.80971-2.64346.76566-1.11307.90485-1.35652,4.31548-6.29565v-.20868c-.83526-.55654-1.63571-1.14783-2.43616-1.73913l-.66123-.45219-2.85379-1.98264-2.85378-2.12174c-6.47322-4.83478-12.77241-9.94783-18.654-15.26956-.76565-.62606-1.42689-1.32176-2.15773-1.98264-2.33175-2.12174-4.5939-4.24348-6.96045-6.4-3.27141-3.2-6.40361-6.4-9.3618-9.6-1.07887-1.14784-2.08813-2.33043-3.13221-3.47827l-2.88859-3.47826c-2.92339-3.47826-5.638-6.78259-7.96971-9.98259l-1.98373-2.81738-1.87932-2.78262c-.93967-1.4261-1.80972-2.78262-2.57538-4.13914s-1.7749-3.13041-2.471-4.59133a35.56985,35.56985,0,0,1-2.33175-6.4,8.60912,8.60912,0,0,0-.348-1.35652l-.90485-.27826-.76566-.20869h-.174a33.34886,33.34886,0,0,1-7.90013-3.513q-1.04407-.62607-2.08813-1.35652l-.87006-.66088-.696-.55654-.80045-.62606-1.00927-.8h0c-.27843-.24351-.48723-.52172-.76566-.76522l-.31322-.34785h0c-.696-.69564-1.42689-1.39129-2.08813-2.15651a45.94373,45.94373,0,0,1-7.27366-11.65219,3.709,3.709,0,0,0-.48723-1.1826,3.47693,3.47693,0,0,0-.24362-.52172l-.62644.5913c-.66124.5913-1.25288,1.21741-1.94893,1.7739s-1.53129,1.14783-2.26214,1.70436-1.70531,1.28694-2.61017,1.87824l-1.67051,1.46086c2.05334,2.57394,4.38509,4.97389,6.64724,7.30437a86.97874,86.97874,0,0,1,6.16,6.95652c.59164.73046,1.11367,1.46087,1.6009,2.19133v.20868c.41763.66088.80045,1.35652,1.18328,2.05216a2.782,2.782,0,0,1,.27842.55654,7.68583,7.68583,0,0,1,.55684,1.21741,14.151,14.151,0,0,1,.87006,2.8522,13.90549,13.90549,0,0,1,0,5.6Z" transform="translate(0.27119 -0.26271)"/><path class="cls-1" d="M146.31584,171.94967a19.77723,19.77723,0,0,0-3.48023.5913,18.66108,18.66108,0,0,0-3.82824,1.39131,7.36512,7.36512,0,0,1-.41762,2.4,21.62555,21.62555,0,0,1-1.04407,3.47826,22.29309,22.29309,0,0,1-4.35028,7.23478,21.62355,21.62355,0,0,1,6.12519-.93913,23.01671,23.01671,0,0,1,3.48023.313,21.25118,21.25118,0,0,0,9.25739-14.33043,27.8588,27.8588,0,0,0-3.72384-.24348A16.48218,16.48218,0,0,0,146.31584,171.94967Z" transform="translate(0.27119 -0.26271)"/><path class="cls-1" d="M128.14908,264.054l.31322-.24347a43.8136,43.8136,0,0,0,9.4314-21.87827,32.38419,32.38419,0,0,0-4.31548.20869c-1.98373.24348-3.89785.5913-5.812.97391-1.14848.24348-2.29695.487-3.48022.8a36.90368,36.90368,0,0,0-5.56836,1.98261,18.79945,18.79945,0,0,0-1.70531.8,38.81055,38.81055,0,0,0-5.32474,3.09565v.4174a22.56575,22.56575,0,0,1-.66124,2.64349,19.75122,19.75122,0,0,1-.76565,2.43477,34.77468,34.77468,0,0,1-3.20181,6.57391c-.41763.66088-.80045,1.287-1.25288,1.913v1.53045a41.71868,41.71868,0,0,1-2.85378,13.913l2.12294-.83478a85.278,85.278,0,0,0,18.27118-10.43478C125.01687,266.69749,126.47856,265.44531,128.14908,264.054Z" transform="translate(0.27119 -0.26271)"/><path class="cls-1" d="M134.62228,157.20184a22.03969,22.03969,0,0,1,.48724,6.53913l2.57538-.62609.31322,1.32175.66123,2.74783a20.43993,20.43993,0,0,1,.41763,2.7826l1.49649-.52174c.87006-.24348,1.80972-.45218,2.78418-.62609a21.14048,21.14048,0,0,0,2.54056-6.74782,33.7206,33.7206,0,0,0,.48723-9.113h0A24.37016,24.37016,0,0,0,134.62228,157.20184Z" transform="translate(0.27119 -0.26271)"/><path class="cls-1" d="M120.10975,354.73229c-1.53129.90436-3.1322,1.80868-4.7331,2.67825l-3.167,1.70434c-2.74938,1.46086-5.56836,2.95652-8.31774,4.5913-.48723.27827-.97446.55654-1.42689.86957a61.38028,61.38028,0,0,0-17.78394,15.687l-.90486,1.21739a70.98224,70.98224,0,0,0-5.01153,8.34783,8.34416,8.34416,0,0,0-.38282.8c0,.27827.27841.55654.38282.83478a53.0635,53.0635,0,0,1,2.36656,5.87827c.27841.76522.522,1.53044.76564,2.33042s.41763,1.63479.62644,2.46957.62645,2.53914.87006,3.89566h0a67.85888,67.85888,0,0,1,.93966,6.95652,70.10482,70.10482,0,0,1,16.60067-17.18262l.38283-.27827a128.71858,128.71858,0,0,1,13.64248-8.7652c4.55908-2.713,8.17852-4.97391,12.00677-7.72174a115.69345,115.69345,0,0,0,2.993-31.30435,46.94654,46.94654,0,0,1-5.74237,4.45217C122.89393,352.99316,121.53665,353.89749,120.10975,354.73229Z" transform="translate(0.27119 -0.26271)"/><path class="cls-1" d="M85.44672,434.38444a201.04325,201.04325,0,0,1,14.93017,14.57392l1.49649,1.66955c.522.5913,1.04407,1.14784,1.5313,1.73913,1.4965,1.70437,5.56836,6.95653,6.96045,8.73042,20.0461-27.82609,20.88134-53.28695,22.06462-80l-2.19254,1.63479-2.71457,1.913-2.78418,1.84348c-2.40135,1.5652-4.83751,3.02609-7.23886,4.45217a129.78471,129.78471,0,0,0-16.46146,11.06087h0a65.53837,65.53837,0,0,0-16.183,19.75652q-1.25289,2.29566-2.40135,4.8v.24348a32.70965,32.70965,0,0,0-1.4617,3.47826l.55684.45216Z" transform="translate(0.27119 -0.26271)"/><path class="cls-1" d="M100.6553,292.43662h0a1.18385,1.18385,0,0,0-.20881.20869,3.653,3.653,0,0,0-1.25288,1.32173,1.84256,1.84256,0,0,0,0,.4174,6.95284,6.95284,0,0,0-.31322,2.29567v1.07825a10.15143,10.15143,0,0,1-.41763,2.53914,7.19815,7.19815,0,0,1-1.00927,2.087,2.4394,2.4394,0,0,1,.48723,0,5.53548,5.53548,0,0,1,1.98373.73043h0c2.88858,1.66958,2.67977,4.83479,5.49875,4.83479h.66124a4.49191,4.49191,0,0,0,1.4617-.487,3.68762,3.68762,0,0,0,1.46169-1.63479,11.7203,11.7203,0,0,1,2.54056-4.41738,6.12566,6.12566,0,0,1,1.98373-1.21738,10.44391,10.44391,0,0,0,3.48022-1.4261,3.1644,3.1644,0,0,0,.87006-1.87827,4.41447,4.41447,0,0,0,0-1.32173c0-1.5652-1.21807-2.26087-2.36655-3.26957a7.54833,7.54833,0,0,1-2.12294-2.713,9.66448,9.66448,0,0,1-.48723-4.52175,3.47671,3.47671,0,0,0-.55684-2.0174,3.097,3.097,0,0,0-1.25287-1.04346,2.47119,2.47119,0,0,0-.62644-.27826,3.482,3.482,0,0,0-1.25288-.27827c-1.74011,0-2.92339,1.53044-5.04633,2.22608v.69567a7.6477,7.6477,0,0,1,0,2.15653,6.43181,6.43181,0,0,1-.66124,2.4A9.91421,9.91421,0,0,1,100.6553,292.43662Zm5.35955,0a1.79743,1.79743,0,1,1-.21781-.20043q.126-.0104.25261-.00825Z" transform="translate(0.27119 -0.26271)"/><path class="cls-1" d="M74.41441,298.97575a4.00354,4.00354,0,0,0,2.95819,1.18259,16.122,16.122,0,0,0,3.48023-.90435,7.24238,7.24238,0,0,1,5.42915.76522c1.42689.86956,2.95819,2.26087,4.7679,1.913a4.87,4.87,0,0,0,3.48023-4.5913,17.38129,17.38129,0,0,1,.48723-4.24348,6.95625,6.95625,0,0,1,2.33175-3.47826,9.67286,9.67286,0,0,0,2.29695-2.15654,4.10233,4.10233,0,0,0,.20881-3.75652c-.83526-2.05217-2.88859-2.36522-4.69831-3.13044a7.86326,7.86326,0,0,1-4.28067-4.17391,9.87591,9.87591,0,0,0-1.70531-3.47826,3.86459,3.86459,0,0,0-3.48022-.86956,5.56807,5.56807,0,0,0-3.48023,2.60869,9.04671,9.04671,0,0,1-3.48022,3.13044,9.64466,9.64466,0,0,1-3.72384.76522,4.35214,4.35214,0,0,0-3.06259.83478,4.694,4.694,0,0,0-1.32249,4.13914c.48723,2.0174,2.645,3.47826,3.20181,6.46957a11.88958,11.88958,0,0,1-.66124,5.04346A3.99862,3.99862,0,0,0,74.41441,298.97575Zm10.61468-14.85217a3.09565,3.09565,0,1,1-3.09739,3.09565h0a3.09653,3.09653,0,0,1,3.0974-3.09565Z" transform="translate(0.27119 -0.26271)"/><path class="cls-1" d="M108.3118,212.054a25.43943,25.43943,0,0,0-2.26215,1.49566,24.35556,24.35556,0,0,0-4.31547,4.17391,20.20434,20.20434,0,0,0-3.48023,6.95654,66.83529,66.83529,0,0,1,9.88384-4.86957,112.61065,112.61065,0,0,1,3.48022,12.06957,23.293,23.293,0,0,0,2.05334-10.64349,38.937,38.937,0,0,0-2.05334-10.67826l-2.74938,1.35652Z" transform="translate(0.27119 -0.26271)"/><path class="cls-1" d="M145.20217,193.54967c.24361-.90434.522-1.8087.696-2.713-.90485-.27827-1.80972-.487-2.71457-.69566l-1.35728-.2087a13.92739,13.92739,0,0,0-2.40135-.24347h-.20882a16.01576,16.01576,0,0,0-8.21333,2.29565v.38261a9.20144,9.20144,0,0,1-.55684,2.29565,23.57977,23.57977,0,0,1-5.74237,9.77392l-.38283.41739a17.6408,17.6408,0,0,1-.348,2.67826,25.20678,25.20678,0,0,1-.55684,2.81739,43.17775,43.17775,0,0,1,6.96045-.97391h4.28067c.73085-.66086,1.46169-1.35651,2.12294-2.087A35.9965,35.9965,0,0,0,145.20217,193.54967Z" transform="translate(0.27119 -0.26271)"/><path class="cls-1" d="M110.33033,200.15837l-.522.62609c.24361.69565.45242,1.39131.66124,2.05217s.66124,2.08695.90486,3.13044l1.4965-.62609h.66123l.45244-.2087.522,1.6.20881.62609.41763,1.35652.24361.76522a.675.675,0,0,0,.174.55652.45174.45174,0,0,0,0,.2087v.487c.20882.73044.38283,1.46087.55684,2.19131l1.70531-.76522.62644-.2087a21.13913,21.13913,0,0,0,.97446-3.2,19.293,19.293,0,0,0,.45243-2.78261h0a24.33686,24.33686,0,0,0,0-2.74783V199.741a20.28265,20.28265,0,0,0-.38282-2.85217h0l-.41763-2.19131h0l-.73084.27827h0l-1.84451.83479a20.42966,20.42966,0,0,0-4.10667,2.713A17.67693,17.67693,0,0,0,110.33033,200.15837Z" transform="translate(0.27119 -0.26271)"/><path class="cls-1" d="M114.15858,243.46271a42.71035,42.71035,0,0,1,5.25513-2.33043,44.88107,44.88107,0,0,1,6.2296-1.84348,50.35013,50.35013,0,0,0,10.75389-25.70434h-8.14372a38.82382,38.82382,0,0,0-6.57762,1.39131H121.293c-.83526.27826-1.6705.55652-2.50576.90434h0l-1.3921.55652a3.20734,3.20734,0,0,0,.174,1.28695,6.21882,6.21882,0,0,0,0,.8c0,.5913.174,1.21739.20882,1.8087a.45174.45174,0,0,0,0,.2087v2.15652h0v2.2261a25.10512,25.10512,0,0,1-5.11594,12.83479,43.48664,43.48664,0,0,1,0,6.36522Z" transform="translate(0.27119 -0.26271)"/><path class="cls-1" d="M123.34636,181.93228h-.20881l-.87006.45217-.73084.41739-.27843.17391-.73084.487-1.07888.76522-.80045.66086a21.32821,21.32821,0,0,0-1.7749,1.77391,17.66745,17.66745,0,0,0-3.167,5.3913,27.39813,27.39813,0,0,1,3.89785-1.8087h.24361l2.08813-.73043h.348l1.70532-.5913h.27842v.52175h0l.27842,1.32174.41763,2.05218h0v.9739a4.29331,4.29331,0,0,0,.24361,1.53043.97338.97338,0,0,0,0,.31305.45174.45174,0,0,0,0,.2087v1.07826a2.34614,2.34614,0,0,0,.174,1.07827,3.05892,3.05892,0,0,1,0,.55652,15.30075,15.30075,0,0,0,1.00927-1.77391c.20882-.41738.38283-.8.55683-1.21738s.31322-.8.45244-1.18261a7.71806,7.71806,0,0,0,.348-1.07827,5.38683,5.38683,0,0,0,.20882-.8l.31322-1.32174h0a10.08248,10.08248,0,0,0,.20882-1.42608h0V185.654a21.48436,21.48436,0,0,0-.24361-2.15651v-1.0087l-.20882-1.0087h0l-.20882-.90434-.45243.17391-.55684.24347h0l.20882.13914-1.4965.66086Z" transform="translate(0.27119 -0.26271)"/><path class="cls-1" d="M79.53035,342.10619A9.017,9.017,0,0,0,72.5699,339.741a8.31734,8.31734,0,0,0-6.71683,4.86957A16.76924,16.76924,0,0,1,77.44221,356.854a17.715,17.715,0,0,1,15.76542-10.087,8.5935,8.5935,0,0,0-5.46395-5.63476A10.794,10.794,0,0,0,79.53035,342.10619Z" transform="translate(0.27119 -0.26271)"/><path class="cls-1" d="M41.14348,487.91488c.696-.5913,1.42689-1.07826,2.15773-1.63479s1.42689-1.11307,2.19254-1.63479a56.25623,56.25623,0,0,1,16.9487-7.65216l2.29694-.5913,1.74012-.34785h.59164c.83525-.17392,1.6705-.313,2.54056-.41737l3.02779-.313V455.77578a36.21365,36.21365,0,0,0-4.10666.69564l-1.18328.313c-.76564.17392-1.5313.41738-2.29694.66088l-2.19254.76522c-9.675,3.72177-18.89762,11.23477-21.89061,20.86957v.20868l-.38282,1.1826-1.35729.48695h-.31322l-2.645.97391a44.257,44.257,0,0,0-26.86733,26.087H25.9001A55.65533,55.65533,0,0,1,41.14348,487.91488Z" transform="translate(0.27119 -0.26271)"/><path class="cls-1" d="M59.72787,453.16708c.73084-.313,1.42689-.59129,2.15774-.8348s1.4965-.55653,2.26215-.76522a38.9556,38.9556,0,0,1,5.18553-1.21741,36.9098,36.9098,0,0,1,6.36881-.62606h2.95819v25.42607a59.61,59.61,0,0,1,6.16.52172l2.33175.34785,2.29695.48695a54.45043,54.45043,0,0,1,14.61693,5.53043c.80045.45219,1.5661.93914,2.33175,1.4261s1.5661.90432,2.29695,1.4261a55.21746,55.21746,0,0,1,12.4244,11.72172,82.96314,82.96314,0,0,0-7.6913-19.82608l-1.4965-2.67827c-.48723-.86957-.93966-1.73914-1.46169-2.6087a116.41934,116.41934,0,0,0-9.74463-13.63478l-1.49649-1.73913-1.4617-1.70436A175.879,175.879,0,0,0,81.8621,438.52358l-2.05334-1.77392c-2.85378-2.43477-5.638-4.73044-8.35253-6.95652-4.6287-3.47826-9.08339-6.95652-13.43367-9.913a196.26988,196.26988,0,0,1-20.01128-15.58259c-1.32249-1.21739-2.61017-2.50435-3.86305-3.82608l-1.98373-2.05217a.62578.62578,0,0,0,0-.24347c-.522-.5913-1.04407-1.25218-1.5661-1.87827a81.08552,81.08552,0,0,1-5.22033-6.95652c-4.41989,32.17391,0,63.37389,11.76315,83.47829A43.39108,43.39108,0,0,1,59.72787,453.16708Z" transform="translate(0.27119 -0.26271)"/><path class="cls-1" d="M32.75614,386.34967c.41762,1.98261.87,3.93042,1.39208,5.84348A91.193,91.193,0,0,0,47.82551,405.4801h0c4.14146,3.47826,8.52655,6.53912,13.29445,9.94783,3.48022,2.46956,6.96045,5.113,10.9279,8,1.4965,1.113,3.0278,2.33043,4.59389,3.47826A76.296,76.296,0,0,1,80.122,419.741a73.70052,73.70052,0,0,0-2.19254-17.3913l-.31322-1.21739a50.45016,50.45016,0,0,0-2.43616-6.95652c-.45243-1.07825-.97447-2.12174-1.4965-3.13044a45.77027,45.77027,0,0,0-2.92339-4.76523A51.09405,51.09405,0,0,0,67.28,381.79316a5.35764,5.35764,0,0,1-.59164-.66088c-.48723-.55654-1.00927-1.07826-1.4965-1.6a86.98911,86.98911,0,0,0-9.04858-7.93043c-2.19254-1.70434-4.17627-3.47826-6.09039-4.93912l-.87006-.76523c-3.48022-2.95651-6.47321-5.73913-9.01378-8.27825-1.14847-1.14783-2.22734-2.26087-3.2018-3.30433-.48724-.487-.87006-.97391-1.32249-1.4261l-1.07887-1.21739c-.24361-.24348-.41763-.48695-.62644-.73043-1.32249-1.53045-2.43616-2.887-3.30621-4.06956a124.59148,124.59148,0,0,0,1.70531,37.42609C32.51252,385.27142,32.61693,385.86271,32.75614,386.34967Z" transform="translate(0.27119 -0.26271)"/><path class="cls-1" d="M137.68488,671.21921a3.16826,3.16826,0,0,1,4.41989-.313,3.09444,3.09444,0,0,1,.36039,4.36306q-.02327.02747-.04717.05435l-24.36157,28.2087a49.93725,49.93725,0,0,0,11.972,9.42611L154.39,684.71493a3.27273,3.27273,0,0,1,4.38508-.313,3.99135,3.99135,0,0,0,.348.45219,3.05957,3.05957,0,0,1,0,3.96522L135.73594,715.8106l.45243.20868A50.03,50.03,0,0,0,191.872,702.941c.69605-.76522,1.35729-1.53044,2.01854-2.33043s1.25288-1.70436,1.87932-2.57393a50.39525,50.39525,0,0,0,3.0626-4.90436q-6.96044-5.39135-13.25965-10.64347c-2.57538-2.12174-5.11594-4.24348-7.5521-6.33046s-4.7679-4.10432-6.96044-6.15654a355.29865,355.29865,0,0,1-38.28247-38.92174c-1.00926-1.21742-1.98372-2.46959-2.95818-3.687-.31322-.38261-.62644-.73046-.90485-1.11307-.696.41737-1.35729.86956-2.01854,1.32175a50.34936,50.34936,0,0,0-10.78869,9.70433,50.06779,50.06779,0,0,0-8.38734,14.4,49.47148,49.47148,0,0,0-3.1322,15.89567v2.92173h0a11.02784,11.02784,0,0,0,.24362,2.81738,49.82613,49.82613,0,0,0,9.2574,25.21739Z" transform="translate(0.27119 -0.26271)"/><path class="cls-1" d="M36.96721,344.12358c.20881,1.46087.41762,2.95652.696,4.45217a132.872,132.872,0,0,0,12.00677,12l1.00927.90436c2.471,2.19129,5.22033,4.487,8.31773,6.95652a102.16171,102.16171,0,0,1,8.00451,6.95652l.73085.73043a56.806,56.806,0,0,1,8.21333,10.2261l.20881-.38261c.83526-1.53045,1.70531-3.0261,2.61017-4.38262a64.49294,64.49294,0,0,1,5.32475-6.95652l1.18327-1.32173a73.07935,73.07935,0,0,1,17.67954-13.63478l1.6009-.90435c1.91412-1.07825,3.82825-2.087,5.70757-3.09565,3.75864-2.0174,7.41288-3.96522,10.78868-6.1913,4.03706-7.2,6.96045-16.8,6.2644-34.46955a62.23615,62.23615,0,0,1-7.7957,4.45217l-.522.27826-3.48023,1.73913c-1.6705.90436-3.48022,1.87827-5.11592,2.95652h0l-2.471,1.63479a57.99923,57.99923,0,0,0-14.72134,14.57392,12.93582,12.93582,0,0,1,3.96747,8.97389A17.40287,17.40287,0,0,0,78.48628,360.054c-.66124,1.32173-1.74011,4.313-1.74011,4.313l-1.04406-4.313c-1.94893-7.58261-6.682-12.24346-12.63322-13.04347H60.87635a14.4,14.4,0,0,1,5.812-8.487,30.78933,30.78933,0,0,0-4.8027-5.1826c-2.12294-1.87826-4.24587-3.47826-6.334-5.28694l-1.11367-.93912-.55683-.45217L50.40088,323.741l-3.48022-3.0261c-1.14847-1.04349-2.26214-2.12174-3.48022-3.2-.55684-.5913-4.97673-5.80869-4.97673-5.80869a113.01679,113.01679,0,0,0-2.22734,25.84348C36.48,339.49749,36.68879,341.79316,36.96721,344.12358Z" transform="translate(0.27119 -0.26271)"/><path class="cls-1" d="M114.5762,630.1062a55.67082,55.67082,0,0,1,4.31548-3.75653,59.162,59.162,0,0,1,6.36882-4.59133c-1.28768-1.7739-2.57537-3.47826-3.75865-5.287a25.68485,25.68485,0,0,1-1.46169-2.19132l-1.77491,2.1565c-1.32249,1.49563-2.819,3.02607-4.41988,4.55651a124.73066,124.73066,0,0,1-23.94395,17.0087c-4.35029,5.00875-6.64724,12.69573-9.77944,23.13052-.696,2.29566-1.39208,4.69567-2.15774,7.2l20.67253-.62606a55.63234,55.63234,0,0,1,11.38034-32.34784A56.354,56.354,0,0,1,114.5762,630.1062Z" transform="translate(0.27119 -0.26271)"/><path class="cls-1" d="M54.68155,321.51489l1.80971,1.49565.66125.52175c2.43616,2.01739,5.01152,4.10434,7.55208,6.33043a33.78,33.78,0,0,1,6.1252,6.95652,11.17671,11.17671,0,0,1,8.42214,1.70434,4.00158,4.00158,0,0,0-2.71458-2.36522,43.543,43.543,0,0,0-8.24813-13.56522A30.61843,30.61843,0,0,1,78.7299,332.61052a185.115,185.115,0,0,1,2.22734-29.14781,7.9378,7.9378,0,0,0-2.22734.76522c-1.4617.83477-2.645,2.46956-5.15073,2.43477a13.19819,13.19819,0,0,1-2.57537-.34782,4.666,4.666,0,0,0-1.25288-.20869h-.41763a4.14162,4.14162,0,0,0-1.67051,1.07825,8.38947,8.38947,0,0,1-5.53355,2.4,7.83454,7.83454,0,0,1-2.74938-.52174h-.174a8.21518,8.21518,0,0,1-1.98373-1.113,7.68537,7.68537,0,0,1-2.88858-5.913,3.47665,3.47665,0,0,0-.348-1.66957,4.27992,4.27992,0,0,0-1.53129-1.32173,7.96408,7.96408,0,0,1-4.00226-7.54782,7.54429,7.54429,0,0,1,.80045-3.26958,10.19267,10.19267,0,0,1,1.77491-2.12174,74.08505,74.08505,0,0,1-1.98373-10.7826c-6.96044,10.81739-6.96044,27.26955-2.645,38.8174A88.55449,88.55449,0,0,0,54.68155,321.51489Z" transform="translate(0.27119 -0.26271)"/><path class="cls-1" d="M164.37821,747.67142l21.96021-32.17391a55.70515,55.70515,0,0,1-30.278,9.87825h-1.42689a55.71077,55.71077,0,0,1-22.44744-4.73044l-20.67253,23.75653a313.827,313.827,0,0,0,70.54413,46.46957c-2.01854-17.39131-10.44068-32.17391-17.71434-43.16523Z" transform="translate(0.27119 -0.26271)"/><path class="cls-1" d="M54.75115,283.81053a4.90256,4.90256,0,0,0,.66124-1.80869A7.82761,7.82761,0,0,1,61.12,275.56706a7.45154,7.45154,0,0,1,2.26214-.34782,5.989,5.989,0,0,1,1.80972.27827,7.17,7.17,0,0,1,2.78418,1.6l.38282.313a7.86709,7.86709,0,0,1,6.2296-2.85217,44.46232,44.46232,0,0,1,.45243-4.487,79.13657,79.13657,0,0,1-11.972-33.49565s-16.70507,16.5913-8.70055,47.54782Z" transform="translate(0.27119 -0.26271)"/><path class="cls-1" d="M64.18256,279.35836a2.264,2.264,0,0,0-.696,0,3.2732,3.2732,0,0,0-1.07887.20868c-3.65423,1.04349-2.01852,4.0348-4.41988,6.95653A6.64712,6.64712,0,0,1,55.482,288.367a10.44365,10.44365,0,0,0-1.87932.93912,3.47885,3.47885,0,0,0-.80045.90435,3.6504,3.6504,0,0,0-.38282,1.53045,4.51942,4.51942,0,0,0,.31322,1.70434,3.72223,3.72223,0,0,0,1.42689,1.66957,10.64766,10.64766,0,0,1,3.48022,3.06086,6.67569,6.67569,0,0,1,.696,1.77392,15.20785,15.20785,0,0,0,.27842,1.87827,3.2692,3.2692,0,0,0,1.77491,3.16523l.38283.20869a5.08342,5.08342,0,0,0,1.46169.27826c2.297,0,3.0974-2.53914,6.16-3.47826a5.08437,5.08437,0,0,1,1.39209-.17392,10.65686,10.65686,0,0,1,1.91412.24348h0a7.92737,7.92737,0,0,1-2.05333-8.90434,4.72811,4.72811,0,0,0,.348-2.33043,5.599,5.599,0,0,0-1.21808-2.4,8.97065,8.97065,0,0,1-2.08814-6.50436v-.4174C65.85307,280.57574,65.19182,279.63662,64.18256,279.35836Zm3.20181,13.07826a2.54057,2.54057,0,1,1-2.54057-2.53914,2.53986,2.53986,0,0,1,2.54057,2.53914Z" transform="translate(0.27119 -0.26271)"/><path class="cls-1" d="M87.11723,633.30619c4.45469-2.50435,8.35254-4.97389,11.86757-7.40871,1.49649-1.04349,2.85378-2.05216,4.14147-3.02607a64.95958,64.95958,0,0,0,13.74688-13.49567h0l.348-1.32176a8.72567,8.72567,0,0,0,0-4.73043,12.79545,12.79545,0,0,0-1.21807-2.887,23.75373,23.75373,0,0,0-1.67051-2.46959,75.11551,75.11551,0,0,0-6.12519-6.95652,94.87376,94.87376,0,0,1-7.90011-9.0435,55.90718,55.90718,0,0,1-73.0847-24.83478A128.83654,128.83654,0,0,0-.27119,561.13228c43.5028,24.34782,44.23365,57.04345,86.762,71.7913A3.48024,3.48024,0,0,1,87.11723,633.30619Z" transform="translate(0.27119 -0.26271)"/><path class="cls-1" d="M187.6609,786.34967l17.71434-16.487q-15.03456-6.95657-29.5123-15.3739A97.35715,97.35715,0,0,1,187.6609,786.34967Z" transform="translate(0.27119 -0.26271)"/><path class="cls-1" d="M369.74621,566.767h0l-58.71139,18.74783a66.16107,66.16107,0,0,0,13.57288,1.14783,75.66335,75.66335,0,0,0,23.3523-4.27825,60.65589,60.65589,0,0,1,21.473-3.47826h.62644a60.65725,60.65725,0,0,1,21.473,3.47826,76.18645,76.18645,0,0,0,23.3871,4.27825,65.84591,65.84591,0,0,0,13.53807-1.14783Z" transform="translate(0.27119 -0.26271)"/><path class="cls-1" d="M245.3978,549.82793a358.05929,358.05929,0,0,1,4.28068,48.69565l110.81034-35.37391-117.97959-37.113C243.34448,533.75838,244.28413,541.654,245.3978,549.82793Z" transform="translate(0.27119 -0.26271)"/><path class="cls-1" d="M207.42857,663.28878l3.0974,2.33043,5.49876,3.89564A83.059,83.059,0,0,0,237.2193,638.454q1.04409-2.6435,1.87933-5.32174a96.57713,96.57713,0,0,0,2.88859-11.75654c.27842-1.63478.522-3.30433.76565-4.93912.41764-3.09565.696-6.22606.87006-9.39129h0v-6.46957c.31321-25.287-5.22034-51.72172-7.41287-76.24347,0-1.11307-.2088-2.22609-.27842-3.47826a23.37986,23.37986,0,0,0-.24362-3.47826c-.24361-3.47826-.348-7.13045-.348-10.60871a102.85857,102.85857,0,0,0-9.04858,7.65216c-.83525.8-1.7053,1.6-2.57536,2.46959l-1.25293,1.63484c-.348.38261-.69605.73046-1.07888,1.07825h0c-1.77491,1.7739-3.48022,3.687-5.53355,5.77393a194.18919,194.18919,0,0,1,4.10666,51.16524,125.44909,125.44909,0,0,1-20.49852,59.37389c-.522.8348-1.14848,1.70436-1.70531,2.53911s-1.14848,1.70437-1.77491,2.57393c-1.84451,2.67828-3.86305,5.39132-5.95118,8.06959,4.41989,4,9.11818,7.93043,13.9209,11.75654Z" transform="translate(0.27119 -0.26271)"/><path class="cls-1" d="M159.81911,616.47142c.80045,1.04349,1.6009,2.087,2.471,3.16523h0c.83526,1.07825,1.67051,2.12174,2.61017,3.23476s1.80972,2.1565,2.78418,3.23475a247.89319,247.89319,0,0,0,18.06235,18.81741c2.33175-3.02607,4.4895-5.98261,6.47322-8.90434l1.67051-2.46959,1.6009-2.53911a117.97308,117.97308,0,0,0,18.61919-55.2,176.63318,176.63318,0,0,0-3.2018-45.21739c-.24361-1.25218-.45243-2.53911-.69605-3.79129l-.62644-3.47826q-.76563-4.10435-1.46169-8.13912c-.20881-1.14783-.41762-2.33043-.59163-3.47826s-.38282-2.29567-.55683-3.47826A132.34492,132.34492,0,0,1,205.41,492.08883a80.033,80.033,0,0,0-13.57287,11.37393c-.80045.8-1.56611,1.70437-2.36656,2.53911s-1.53129,1.63479-2.33174,2.53912a170.83924,170.83924,0,0,0-38.52608,88.59131,55.64308,55.64308,0,0,0,8.83977,16.10436C158.28781,614.38444,159.05345,615.42793,159.81911,616.47142Z" transform="translate(0.27119 -0.26271)"/><path class="cls-1" d="M133.92625,570.69749l-.38283-.20868a31.09239,31.09239,0,0,0-2.92339-1.28694,29.2149,29.2149,0,0,0-2.95818-.93915,24.37516,24.37516,0,0,0-6.1252-1.04349H119.3093q-.0087.17379,0,.34785v.313a4.21356,4.21356,0,0,0,.48723,1.28694c.522,1.35652,1.14848,2.713,1.80972,4.10432a43.33214,43.33214,0,0,0,3.167,5.287,33.94614,33.94614,0,0,0,2.43615,3.09565,25.53552,25.53552,0,0,0,2.12294,2.22609,2.36736,2.36736,0,0,0,.41763.41737.939.939,0,0,0,.24361.27827,22.27018,22.27018,0,0,0,1.77491,1.39128l1.11367.86957a29.34606,29.34606,0,0,0,8.94417,4.34783l1.07888.27826h.59163v-.86956c.174-1.35652.45243-3.75653.69605-5.913s.45243-3.47826.59163-4.1739A26.61865,26.61865,0,0,0,133.92625,570.69749Z" transform="translate(0.27119 -0.26271)"/><path class="cls-1" d="M132.95178,531.11487a55.62986,55.62986,0,0,1-9.327,30.85216,28.65638,28.65638,0,0,1,5.39435.90432c1.00927.24351,1.98373.5913,2.993.93915s1.94893.73046,2.92339,1.14783l.80045.41738h0a200.7127,200.7127,0,0,0,17.12271-60.97386c.24361-2.1565.38283-4.27825.48723-6.4v-9.774c0-9.21737-1.07887-18.4348-1.94893-27.44348-.73084-7.16521-1.3921-13.913-1.67051-20.62609l-3.82824,2.81738a115.06029,115.06029,0,0,0-28.88585,28.48694,86.12143,86.12143,0,0,1,11.48473,37.56528A55.62511,55.62511,0,0,1,132.95178,531.11487Z" transform="translate(0.27119 -0.26271)"/><path class="cls-1" d="M102.639,195.04532l-1.28769-2.26087-1.25288-2.22609-.45242-.69565c-.38283-.62609-1.70531-3.2-2.12294-3.86088a43.15235,43.15235,0,0,0-11.34553,27.82609l1.07886,2.05218c.73085,1.53043,1.42689,3.16521,2.08814,4.83478a65.15411,65.15411,0,0,1,2.645,9.11305c.45242-.45217.93966-.93912,1.42689-1.35652a24.34115,24.34115,0,0,1,6.47322-14.8174,21.74437,21.74437,0,0,1,1.5661-1.53043l.24361-.24348c.62645-.55652,1.25289-1.07826,1.91412-1.56522h0a28.47224,28.47224,0,0,1,2.40136-1.56522l1.35729-.76522a19.57349,19.57349,0,0,0-.48723-2.05217q-.41763-1.46088-.93966-2.92174c-.31323-.83479-.66125-1.70436-1.00927-2.53913-.55684-1.39131-1.21808-2.8174-1.91412-4.20869Z" transform="translate(0.27119 -0.26271)"/><path class="cls-1" d="M70.447,249.86272a36.02363,36.02363,0,0,0,1.4965,3.47826c.522,1.04349,1.32248,3.0261,2.08813,4.55651s1.28769,2.67825,1.98373,4.06956c0,.313.31322.69564.48723,1.0087l.20881.4174h0l.31322-.8.62644-1.6c.174-.4174.348-.86956.55684-1.287a1.42509,1.42509,0,0,1,.174-.313l.31322-.62609a35.44069,35.44069,0,0,1,3.48022-5.39132,24.54254,24.54254,0,0,1,.174-3.23478,33.02806,33.02806,0,0,1,2.05333-8.76521c.38283-1.04348.83525-2.05216,1.28769-2.9913a28.111,28.111,0,0,1,1.49649-2.67825,21.80978,21.80978,0,0,1,1.4617-2.05216,65.04863,65.04863,0,0,0-1.91412-7.30437c-.41763-1.4261-.87006-2.74783-1.35729-4.03478-.174-.487-.38282-.93914-.55683-1.42609s-.80045-1.913-1.25288-2.8174a142.59094,142.59094,0,0,0-8.24813-13.913c-5.53356,7.47827-9.98824,24.55653-6.96045,38.67826A47.87389,47.87389,0,0,0,70.447,249.86272Z" transform="translate(0.27119 -0.26271)"/><path class="cls-1" d="M123.38116,135.91489A348.69568,348.69568,0,0,1,231.2681,42.24532,286.72338,286.72338,0,0,1,368.66732,6.76706h1.87932A286.7235,286.7235,0,0,1,507.94589,42.24532a348.27818,348.27818,0,0,1,107.88694,93.66957,395.23319,395.23319,0,0,1,42.56312,68.5913l2.74935-3.96521a408.3715,408.3715,0,0,0-41.27546-67.75652A345.6995,345.6995,0,0,0,510.97367,37.06271a292.46751,292.46751,0,0,0-140.28782-36.8h-1.87932a292.4675,292.4675,0,0,0-140.28781,36.8A345.69983,345.69983,0,0,0,119.3441,132.92358,408.20083,408.20083,0,0,0,78.10345,200.6801l2.74938,3.96521A393.00618,393.00618,0,0,1,123.38116,135.91489Z" transform="translate(0.27119 -0.26271)"/><path class="cls-1" d="M136.74522,392.88879a150.94537,150.94537,0,0,1-1.87932,20.5913L198.38,429.41053a204.00448,204.00448,0,0,0-8.94417,43.54781l13.22484-5.6c11.51955-88.38259,81.75048-154.05215,166.14591-154.05215h1.9141c84.36062,0,154.62635,65.77393,166.1111,154.15655l13.22486,5.6a204.00529,204.00529,0,0,0-8.9442-43.54784l63.51408-15.93044a156.68867,156.68867,0,0,1-1.8793-20.5913l-67.06392,21.73913a194.16584,194.16584,0,0,0-26.79772-45.913l100.71769-77.66957a102.44684,102.44684,0,0,1-1.53131-25.913L500.56783,359.1497A181.433,181.433,0,0,0,462.80738,327.428l94.7317-155.54783c3.48022,4.34782,7.23887,8.55652,10.44067,13.04348a340.23954,340.23954,0,0,1,31.67006,52.76521h4.5243a345.30827,345.30827,0,0,0-32.01805-55.65218c-3.48022-5.18261-7.7261-10.01739-11.72834-14.95652-1.14848-1.42608-2.22734-2.95651-3.48022-4.3826a274.30374,274.30374,0,0,0-71.79709-61.56523A228.88783,228.88783,0,0,0,370.72066,69.4801h-1.91413A229.027,229.027,0,0,0,254.342,101.13228a274.30441,274.30441,0,0,0-71.93623,61.42608c-1.18328,1.42609-2.26215,2.95652-3.48023,4.38261-3.96745,4.93912-8.07412,9.77391-11.72835,14.95652a345.30758,345.30758,0,0,0-32.01806,55.65218h4.52429a340.23874,340.23874,0,0,1,31.67-52.76521c3.48022-4.487,6.96045-8.69565,10.44067-13.04348l94.90569,155.65218a180.73686,180.73686,0,0,0-37.79523,31.72175l-107.50411-93.913a102.44776,102.44776,0,0,1-1.53129,25.913l100.75248,77.84346a193.08816,193.08816,0,0,0-26.83253,45.913ZM482.12263,106.41922a261.80715,261.80715,0,0,1,47.05264,34.78261c5.15072,4.8,9.91866,9.98261,14.72134,15.09565L450.8354,320.4714a172.22927,172.22927,0,0,0-44.86008-16.10434L451.46187,91.741A231.70192,231.70192,0,0,1,482.12263,106.41922ZM368.80656,76.12357h1.91413a216.75767,216.75767,0,0,1,60.27747,8.62609L392.9941,302.17577a173.33911,173.33911,0,0,0-22.20382-1.46087h-1.9141a173.90108,173.90108,0,0,0-22.23863,1.46087L308.49427,84.74967A217.00188,217.00188,0,0,1,368.80656,76.12357Zm-173.21074,80c4.80271-5.113,9.60541-10.43478,14.75615-15.09565a260.3462,260.3462,0,0,1,46.9134-34.60868A233.82246,233.82246,0,0,1,287.92614,91.741l45.62573,212.62608a171.32587,171.32587,0,0,0-44.96448,16.10434Z" transform="translate(0.27119 -0.26271)"/><path class="cls-1" d="M311.10444,775.08008a5.14779,5.14779,0,1,0,.00284-.14218Q311.10489,775.009,311.10444,775.08008Z" transform="translate(0.27119 -0.26271)"/><path class="cls-1" d="M257.26537,763.01051a5.15073,5.15073,0,1,0,5.15064-5.14791l-.0347.0001a5.1145,5.1145,0,0,0-5.116,5.11294Z" transform="translate(0.27119 -0.26271)"/><path class="cls-1" d="M205.51445,741.72358a5.15073,5.15073,0,1,0,5.15074-5.14782h0a5.11453,5.11453,0,0,0-5.15073,5.078Q205.51421,741.68866,205.51445,741.72358Z" transform="translate(0.27119 -0.26271)"/><path class="cls-1" d="M659.92725,268.99315a32.40908,32.40908,0,0,0-6.19479-13.46088,34.52042,34.52042,0,0,0-12.38959-9.94782l-.59163-.27827a55.62226,55.62226,0,0,0-2.57538,23.75653,39.45924,39.45924,0,0,0,1.49647,6.6087,3.13138,3.13138,0,0,0,.27842.97391c.1044.313.20881.93912.55685.97391h.27842a14.75754,14.75754,0,0,0,1.74012-.62609,3.30508,3.30508,0,0,0,2.50576-2.74783,10.676,10.676,0,0,1,2.08816-3.86087,8.286,8.286,0,0,1,7.76088-2.22609,8.90886,8.90886,0,0,1,5.49876,4.06956h0A25.59213,25.59213,0,0,0,659.92725,268.99315Z" transform="translate(0.27119 -0.26271)"/><path class="cls-1" d="M651.95757,244.854a20.85784,20.85784,0,0,0-1.14848-3.13044c-.174-.45217-.38283-.86957-.59164-1.32173a31.29744,31.29744,0,0,0-1.80973-3.16523q-.83528-1.25221-1.77489-2.4l-.62642-.69564a25.6303,25.6303,0,0,0-1.87929-1.98261c-.696-.66088-1.35729-1.25218-2.05332-1.80869l-.45245-.34782a31.53042,31.53042,0,0,0-3.48022-2.46956l-1.18327-.66088-.41761-.24347h-.3132l-.87006-.41741h-1.25294a3.77493,3.77493,0,0,1-.27842.97391v.487a6.12958,6.12958,0,0,1-.45245,1.49565h0v.487a7.39587,7.39587,0,0,1-.348,1.39131,2.88282,2.88282,0,0,0,0,.52174c-.31321,1.287-.55685,2.57391-.76565,3.89566l-.31321,2.12174v2.713h0v2.713a36.11772,36.11772,0,0,0,.38283,5.11305,30.76588,30.76588,0,0,0,.55684,3.0261,6.89566,6.89566,0,0,0,.48723,1.73913c.174.59129.45245,1.32173.696,1.9826l.2088.55654c.20881.55653.45245,1.07825.696,1.6v-1.18259h0a10.81061,10.81061,0,0,1,.3132-2.087v-.20869a10.81493,10.81493,0,0,1,.48723-2.29566c.174-.76523,0-.62609,0-.93912.24364-1.04349.522-2.12174.80044-3.16523v-.27827c.174-.62609.31321-1.25218.522-1.913h0l.24364-.86957.348-1.14783.696-2.33043h0l2.26213,1.0087,1.87929.90435h.24364l.73087.34782.93968.45217,1.70533.97391c.62641.34782,1.3225.8,2.05332,1.287l1.5313,1.07826.522.38261h0l1.00924.8,1.63571,1.39131c-.174-.97391-.38283-1.94782-.62642-2.887Z" transform="translate(0.27119 -0.26271)"/><path class="cls-1" d="M637.34064,574.454a50.09636,50.09636,0,0,0,68.31681-17.3913c.522-.86957,1.04407-1.73913,1.5313-2.64346s.87006-1.77389,1.28767-2.67828a49.67834,49.67834,0,0,0,1.18326-38.26087,30.80607,30.80607,0,0,0-1.18326-2.95654c-.45245-.97391-.90484-1.94782-1.39207-2.92173a51.17062,51.17062,0,0,0-12.56361-15.3739c-.696-.55654-1.4269-1.07825-2.15772-1.6l-2.22734-1.6a50.6145,50.6145,0,0,0-12.94644-6.05219c-.76565-.24351-1.53131-.38261-2.33174-.5913l-1.18327-.313-1.11369-.2435a2.34945,2.34945,0,0,1-1.07886-.17393c-1.49647-.27827-3.06262-.48695-4.62871-.62606h-7.204a11.46582,11.46582,0,0,0-2.67979.20869l-2.50577.38261a50.51646,50.51646,0,0,0-16.357,5.70434c-.80043.4522-1.56609.93915-2.36652,1.46087l-.522.313,1.07886.97391,4.14148,3.82611,20.88134,19.02609.20881.20868,2.26212,2.05216,1.98375,1.87824,2.01854,1.80871,1.7749,1.66955h0a3.12922,3.12922,0,0,1,.174,4.41741,3.1678,3.1678,0,0,1-2.297,1.00867,3.09844,3.09844,0,0,1-2.12294-.8348l-2.19256-2.0174-2.01854-1.84347-1.98375-1.84348L642.909,504.61054l-3.3062-3.02607-3.48022-3.26958-5.95121-5.46089a50.58027,50.58027,0,0,0-10.44067,12.313l18.51482,17.07827,2.54054,2.33043,2.471,2.29567,3.48022,3.47826,2.01854,1.84347,1.98375,1.84348,3.48022,3.47826a3.12919,3.12919,0,0,1,.174,4.4174,3.16773,3.16773,0,0,1-2.297,1.00867,3.09839,3.09839,0,0,1-2.12293-.8348l-4.10664-3.79129-2.01854-1.84347-1.98375-1.80871h0l-2.36653-2.19132L637.09705,530.28l-20.70732-19.06085v.313a51.34971,51.34971,0,0,0-4.07186,18.99133,6.94637,6.94637,0,0,0,0,.86956,49.8949,49.8949,0,0,0,10.44067,30.46955,3.47938,3.47938,0,0,1,.27843.38261l2.01853,2.4c.696.8,1.39207,1.6,2.15773,2.36519s1.74011,1.6,2.64495,2.4l2.12293,1.70437c.80044.62606,1.5661,1.25217,2.40137,1.80871S636.36612,573.86272,637.34064,574.454Z" transform="translate(0.27119 -0.26271)"/><path class="cls-1" d="M656.273,336.81924a29.84294,29.84294,0,0,0-8.49176-12.41739,22.13184,22.13184,0,0,1,10.16225,8.17391,167.80271,167.80271,0,0,0-2.61017-29.113,9.98864,9.98864,0,0,0-1.14848.73043,8.98237,8.98237,0,0,1-5.18555,1.73913c-2.64495,0-3.72386-.90436-6.19479.313a5.74085,5.74085,0,0,0-2.12294,1.94782,7.65617,7.65617,0,0,1-5.35952,3.93042,10.44775,10.44775,0,0,1-1.07886,0h-1.32251l-1.14848-.27827a7.65926,7.65926,0,0,1-1.94891-.83477,5.60292,5.60292,0,0,1-1.39207-1.113l-.24364-.20869a10.43386,10.43386,0,0,1-2.01849-3.3391,5.32037,5.32037,0,0,0-1.04407-1.91306,3.48126,3.48126,0,0,0-1.14848-.52174h-.48723a7.341,7.341,0,0,1-6.02077-6.22609,7.68443,7.68443,0,0,1,2.471-7.33913l.83527-.73043a4.87107,4.87107,0,0,0,1.4269-1.6,3.47358,3.47358,0,0,0,0-.90436v-.97391a11.19548,11.19548,0,0,1,.27843-3.2,5.738,5.738,0,0,1,.83527-1.913,6.26157,6.26157,0,0,1,1.35729-1.56521,7.1999,7.1999,0,0,1,.83527-.5913c-1.91413-1.0087-3.93267-2.12174-6.05561-3.47826-.38283-.20869-.76565-.487-1.14848-.73043-1.63571-1.07825-3.3062-2.26088-5.08115-3.47826l-.62641-.487-.93968-.66087v2.78262c.174,13.913,2.78419,31.30434,11.06709,43.47826l4.38506,2.29566.41761.24348,2.85381,1.66958.41761.24347a61.20368,61.20368,0,0,1,18.41036,17.04349l.59163.83477a12.88381,12.88381,0,0,1,9.0486,0A4.87224,4.87224,0,0,0,656.273,336.81924Z" transform="translate(0.27119 -0.26271)"/><path class="cls-1" d="M625.40344,166.55837l-.2088.34782c-.24365.313-.41761.62609-.62642.90434-.73087,1.04348-1.39207,2.12174-2.01853,3.23479a1.94727,1.94727,0,0,0-.174.27826,41.377,41.377,0,0,0-2.297,5.04348l-.522,1.46087a6.7656,6.7656,0,0,0,.24364,1.07826,1.28656,1.28656,0,0,1,0,.38261c.66125.38261,1.2181.8,1.80973,1.21739a20.26025,20.26025,0,0,1,1.8793,1.39131,21.73539,21.73539,0,0,1,7.41289,13.913l.55685.55652c.87006-1.87826,1.84452-3.75652,2.92338-5.66957l1.07886-1.94783a55.62729,55.62729,0,0,0-2.43615-9.25217A39.95928,39.95928,0,0,0,625.40344,166.55837Z" transform="translate(0.27119 -0.26271)"/><path class="cls-1" d="M612.2482,150.31488c-.45245.8-1.49647,2.887-1.84451,3.687s-.522,1.14784-.73088,1.73914a13.90848,13.90848,0,0,0-.62641,2.36521,18.18184,18.18184,0,0,0-.38283,2.713,19.7481,19.7481,0,0,0,.174,4.27826,19.322,19.322,0,0,1,2.85381,1.56522,18.61778,18.61778,0,0,1,2.64495,2.12174,18.26469,18.26469,0,0,1,2.471,2.887c.174.24347.38282.41738.522.66086a47.98885,47.98885,0,0,1,2.54055-4.86957,6.05376,6.05376,0,0,0,.38282-.62609A23.26457,23.26457,0,0,0,612.2482,150.31488Z" transform="translate(0.27119 -0.26271)"/><path class="cls-1" d="M612.631,173.02792a16.18092,16.18092,0,0,0-2.22734-2.15652,16.53476,16.53476,0,0,0-2.78419-1.73913,16.2591,16.2591,0,0,0-2.50577-.93913h-.2088a6.70805,6.70805,0,0,0,0,.93913,14.77224,14.77224,0,0,0,0,2.887,18.6985,18.6985,0,0,0,.24364,2.713,14.25,14.25,0,0,0,.55684,2.26087,5.45772,5.45772,0,0,0,.27843,1.0087,10.43174,10.43174,0,0,0,.76565,1.66956,17.04109,17.04109,0,0,0,1.63571,2.713l.24364.31305V182.454a6.46841,6.46841,0,0,1,.27843-1.42609v-.62608a1.20911,1.20911,0,0,1,.2088-.83479l.24364-1.04348h0V178.141l.38283-1.42609v-.487l.24364-1.07827h0l2.54055.93914.41761.17391,1.39207.52174h.45244l-.2088-.52174A13.63287,13.63287,0,0,0,612.631,173.02792Z" transform="translate(0.27119 -0.26271)"/><path class="cls-1" d="M599.05817,568.12356a206.6247,206.6247,0,0,1-17.67954-63.16523c0-1.73913-.31321-3.47826-.45244-5.287l-22.51706,6.95652a171.09338,171.09338,0,0,1,33.8974,67.6174A32.2212,32.2212,0,0,1,599.05817,568.12356Z" transform="translate(0.27119 -0.26271)"/><path class="cls-1" d="M510.86926,700.57574a5.14784,5.14784,0,1,0,5.15072,5.14787v-.00006A5.14925,5.14925,0,0,0,510.86926,700.57574Z" transform="translate(0.27119 -0.26271)"/><path class="cls-1" d="M616.91169,599.741a12.95948,12.95948,0,0,1,.55685-1.21741l.27842-.55653c.38283-.69564.76565-1.39129,1.2181-2.05216v-.20869l1.60093-2.19132a86.97158,86.97158,0,0,1,6.16-6.95652,87.99108,87.99108,0,0,0,6.64724-7.30437l-1.6705-1.46087c-.87-.59129-1.74011-1.25217-2.57538-1.87823s-1.56609-1.11307-2.297-1.70437-1.28767-1.1826-1.94892-1.7739l-.62641-.59129-.24364.52171a3.1628,3.1628,0,0,1-.48723,1.1826,45.00479,45.00479,0,0,1-7.27366,11.6522c-.66125.76522-1.39207,1.46086-2.08815,2.1565h0l-.31321.34785c-.27843.2435-.48723.52172-.76565.76522h0l-1.00925.8-.80043.62607-.696.55653-.87.66088q-1.04414.73042-2.08816,1.35652a33.14052,33.14052,0,0,1-8.45692,3.75653h-.2088l-.76566.20868-.90483.27827a7.07989,7.07989,0,0,1-.34805,1.35652,33.0645,33.0645,0,0,1-2.33174,6.4c-.696,1.46086-1.53131,2.9913-2.471,4.59133s-1.63571,2.713-2.57539,4.13914l-1.8793,2.78262-1.98375,2.81738c-2.33174,3.2-5.04631,6.53915-7.96969,9.98259l-2.88859,3.47826c-1.04408,1.14783-2.05332,2.33043-3.13218,3.47826-2.92338,3.2-6.09039,6.4-9.36181,9.6-2.19256,2.15651-4.45468,4.27825-6.78643,6.4-.696.66088-1.39206,1.35652-2.12294,1.98263-5.91636,5.32174-12.21556,10.43479-18.654,15.26957L531.89,671.11487l-2.85381,1.98263-.62641.45219-2.471,1.73913v.20869l4.31549,6.29565.90484,1.35651.76565,1.11307,1.80974,2.64346,1.56609,2.29567a.62615.62615,0,0,1,.24364-.17393l1.98375-1.5652.41761-.313.93967-.73046,3.79344-3.02607c2.71457-2.19132,5.39435-4.34783,8.00452-6.53915a371.16954,371.16954,0,0,0,54.3263-53.66959l1.84451-2.4h0l1.70533-2.22609,1.28767-1.77389c1.04407-1.4261,2.05332-2.81738,2.993-4.20872s1.8793-2.7478,2.74935-4.10432a1.218,1.218,0,0,1,.174-.27827h0a14.35659,14.35659,0,0,1,0-5.6A16.82986,16.82986,0,0,1,616.91169,599.741Z" transform="translate(0.27119 -0.26271)"/><path class="cls-1" d="M587.67783,172.054a21.21638,21.21638,0,0,0,9.22257,14.33044,23.43378,23.43378,0,0,1,3.48022-.313,21.62379,21.62379,0,0,1,6.12518.93913,22.29315,22.29315,0,0,1-4.35028-7.23477,32.405,32.405,0,0,1-1.04408-3.47826,20.75937,20.75937,0,0,1-.41761-2.4,17.96473,17.96473,0,0,0-3.82827-1.39131,19.778,19.778,0,0,0-3.48022-.5913h-1.80973A26.9868,26.9868,0,0,0,587.67783,172.054Z" transform="translate(0.27119 -0.26271)"/><path class="cls-1" d="M633.72117,263.77576c-.41761-.62609-.83527-1.25217-1.2181-1.913a32.96835,32.96835,0,0,1-3.23658-6.57391c-.27842-.8-.55685-1.6-.76565-2.43477s-.45245-1.73913-.66125-2.64349v-.4174a40.72421,40.72421,0,0,0-5.29-3.09565c-.59163-.313-1.14848-.55654-1.74011-.8a36.90314,36.90314,0,0,0-5.56838-1.98261c-1.14848-.313-2.26212-.55653-3.48022-.8-1.91414-.38261-3.86305-.73043-5.84675-.97391a31.8965,31.8965,0,0,0-4.28066-.20869,43.60467,43.60467,0,0,0,9.39659,21.87827l.31321.24347c1.67049,1.39131,3.3062,2.64349,4.87229,3.7913A84.37351,84.37351,0,0,0,634.452,278.28008l2.12294.83477a40.95356,40.95356,0,0,1-2.819-13.913C633.72117,264.81923,633.72117,264.29751,633.72117,263.77576Z" transform="translate(0.27119 -0.26271)"/><path class="cls-1" d="M593.17659,152.95837a32.33023,32.33023,0,0,0,.45244,9.113,22.07973,22.07973,0,0,0,2.54055,6.74782,11.11739,11.11739,0,0,1,2.78419.62609l1.46169.52174a20.22979,20.22979,0,0,1,.45245-2.7826l.62641-2.74783.31321-1.32175,2.57538.62609a23.25522,23.25522,0,0,1,.48723-6.53913A24.37,24.37,0,0,0,593.17659,152.95837Z" transform="translate(0.27119 -0.26271)"/><path class="cls-1" d="M661.14535,390.59315l-.41761-.8a62.59919,62.59919,0,0,0-5.01153-8.313c-.27842-.4174-.59163-.8-.90484-1.21739a61.27555,61.27555,0,0,0-17.74916-15.687l-1.46169-.86957c-2.74935-1.63478-5.53354-3.13044-8.31773-4.5913l-3.167-1.70434c-1.60093-.86957-3.2018-1.77392-4.73311-2.67825s-2.78419-1.73913-4.10664-2.64349a49.763,49.763,0,0,1-5.74235-4.45217,115.69143,115.69143,0,0,0,2.993,31.30435c3.82826,2.74783,7.8305,5.21739,12.00676,7.72175s9.153,5.46086,13.64247,8.7652l.38283.27827a70.10505,70.10505,0,0,1,16.60068,17.18262c.24364-2.43478.522-4.73044.93967-6.95653h0c.27843-1.35652.55685-2.64348.87006-3.89566l.62641-2.46956c.24365-.8.48723-1.56521.76566-2.33043a53.06482,53.06482,0,0,1,2.36652-5.87827Z" transform="translate(0.27119 -0.26271)"/><path class="cls-1" d="M636.08775,452.43662l1.53131-1.73913,1.49647-1.66955A201.04283,201.04283,0,0,1,654.04567,434.454c1.39207-1.21738,2.74935-2.36522,4.14147-3.47826l.55685-.45216c-.48723-1.1826-.97446-2.29567-1.46169-3.47826a.86947.86947,0,0,0,0-.24348c-.76565-1.66958-1.56609-3.26957-2.36652-4.8a66.09526,66.09526,0,0,0-16.183-19.75652h0a129.78175,129.78175,0,0,0-16.46145-11.06087c-2.40136-1.4261-4.80272-2.887-7.23887-4.45217l-2.78419-1.84348-2.67978-1.913c-.76566-.55654-1.49648-1.07825-2.19256-1.63479,1.14848,26.6087,2.01853,52.17391,22.0646,80A83.39606,83.39606,0,0,1,636.08775,452.43662Z" transform="translate(0.27119 -0.26271)"/><path class="cls-1" d="M624.01137,292.43662c-1.14848,1.0087-2.19256,1.70435-2.36652,3.26958a6.01659,6.01659,0,0,0,0,1.32173,3.16441,3.16441,0,0,0,.87,1.87826,10.89679,10.89679,0,0,0,3.48023,1.4261,5.778,5.778,0,0,1,1.98375,1.21739,11.85924,11.85924,0,0,1,2.57538,4.41738,3.47892,3.47892,0,0,0,1.42691,1.63478,4.73484,4.73484,0,0,0,1.49647.487h.62641c2.819,0,2.64495-3.16523,5.53355-4.83478h0a5.11749,5.11749,0,0,1,1.98375-.73043h.45245a8.20686,8.20686,0,0,1-1.00925-2.087,10.1508,10.1508,0,0,1-.41761-2.53915v-1.07825a6.95171,6.95171,0,0,0-.27842-2.29566,1.8414,1.8414,0,0,1,0-.4174,4.38346,4.38346,0,0,0-1.25288-1.32173l-.24364-.20869h0a10.43642,10.43642,0,0,1-2.993-3.47826,7.162,7.162,0,0,1-.66125-2.4,9.21209,9.21209,0,0,1,0-2.15653v-.69567c-2.15772-.69564-3.48022-2.22609-5.08115-2.22609a3.48226,3.48226,0,0,0-1.25288.27827,2.47117,2.47117,0,0,0-.62642.27827,3.47958,3.47958,0,0,0-1.2181,1.04349,3.164,3.164,0,0,0-.522,2.0174,9.69908,9.69908,0,0,1-.522,4.52175A7.548,7.548,0,0,1,624.01137,292.43662Zm9.43143,0a2.53913,2.53913,0,1,1-2.54055,2.53915h0a2.53957,2.53957,0,0,1,2.32314-2.73926q.10842-.00892.21736-.00857Z" transform="translate(0.27119 -0.26271)"/><path class="cls-1" d="M668.38423,280.854a4.14164,4.14164,0,0,0-3.48023-2.26088,10.0276,10.0276,0,0,1-5.01153-1.14783,16.1779,16.1779,0,0,1-3.48022-3.79129,4.14245,4.14245,0,0,0-3.48023-1.6c-1.98375,0-2.95821,1.80869-3.689,3.47826a8.34878,8.34878,0,0,1-3.79344,4.76523,14.65461,14.65461,0,0,0-4.7331,2.33043,4.2427,4.2427,0,0,0,.80043,6.46957,10.4361,10.4361,0,0,1,3.02778,3.47826,18.87691,18.87691,0,0,1,.66125,5.42608,4.03765,4.03765,0,0,0,6.09039,3.2,15.28068,15.28068,0,0,1,3.48023-1.80868,7.13839,7.13839,0,0,1,4.35028,0,10.446,10.446,0,0,0,4.17626.8,4.03538,4.03538,0,0,0,3.48022-4.27827,17.904,17.904,0,0,1-.83527-5.73914C666.05248,286.97576,670.0895,284.22793,668.38423,280.854Zm-13.9209,9.46087a3.09565,3.09565,0,1,1,3.0624-3.13022l.00021.03457a3.09647,3.09647,0,0,1-3.02783,3.09565Z" transform="translate(0.27119 -0.26271)"/><path class="cls-1" d="M631.21541,212.054l2.22734,1.49566a23.38229,23.38229,0,0,1,4.3155,4.17391,20.06583,20.06583,0,0,1,3.48022,6.95654,60.64,60.64,0,0,0-9.88382-4.86957,118.19538,118.19538,0,0,0-3.3062,12.03478,23.22382,23.22382,0,0,1-2.05332-10.43479,40.25686,40.25686,0,0,1,2.05332-10.71305l2.74935,1.35652Z" transform="translate(0.27119 -0.26271)"/><path class="cls-1" d="M606.67982,209.27141h2.40136a42.65551,42.65551,0,0,1,6.96045.97391,25.13254,25.13254,0,0,1-.522-2.8174c0-.90434-.31321-1.77391-.38283-2.67826l-.38283-.41739a23.96215,23.96215,0,0,1-5.74234-9.77392c-.20881-.76522-.41761-1.53043-.55685-2.29565v-.38261a16.01591,16.01591,0,0,0-8.21333-2.29565h-.20881a13.92742,13.92742,0,0,0-2.40136.24348l-1.35729.2087c-.90483.2087-1.80973.41738-2.71457.69565q.31322,1.35654.73088,2.713a35.47482,35.47482,0,0,0,8.35251,13.70434c.66125.73044,1.39207,1.42609,2.12294,2.087Z" transform="translate(0.27119 -0.26271)"/><path class="cls-1" d="M627.00437,198.03663a20.42935,20.42935,0,0,0-4.10664-2.713l-1.84452-.83479h0l-.73087-.27827h0a17.04277,17.04277,0,0,1-.38282,2.19131h0a27.94137,27.94137,0,0,1-.38283,2.85217,13.32743,13.32743,0,0,0,0,2.05218v1.42608a24.32278,24.32278,0,0,0,0,2.74783h0a25.71926,25.71926,0,0,0,.45245,2.78261,21.13685,21.13685,0,0,0,.97446,3.2l.62641.2087,1.74011.76522c.174-.73043.31321-1.46086.522-2.1913a2.57212,2.57212,0,0,0,0-.487v-.2087a4.30609,4.30609,0,0,1,0-.55652l.24365-.76522.45244-1.35652v-.62609l.522-1.6.45245.20871h.66125l1.49647.62608c.27843-1.04347.55685-2.087.90484-3.13044s.41761-1.35652.696-2.05217l-.55684-.62609A15.51869,15.51869,0,0,0,627.00437,198.03663Z" transform="translate(0.27119 -0.26271)"/><path class="cls-1" d="M620.0787,241.13228a40.51892,40.51892,0,0,1,5.25512,2.33043c.59163.313,1.18327.69564,1.7749,1.04348a48.97707,48.97707,0,0,1,0-6.36522,25.41815,25.41815,0,0,1-5.11594-12.83479v-2.22609h0v-2.36521c0-.5913.174-1.21739.20881-1.8087v-2.087l-1.39207-.55652h0c-.83527-.34782-1.63571-.62609-2.471-.90435h-.41761a39.17151,39.17151,0,0,0-6.54284-1.39131h-1.53131q-1.58251-.07917-3.167,0h-3.44544a50.35015,50.35015,0,0,0,10.75388,25.70436A43.52342,43.52342,0,0,1,620.0787,241.13228Z" transform="translate(0.27119 -0.26271)"/><path class="cls-1" d="M620.84436,184.99315l-.80044-.66087-1.07886-.76522-.73087-.487-.24364-.17391-.76566-.41739-.87-.45218h-.41761l-1.53131-.66086h-.41766l-.55685-.24348-.45245-.17391-.2088.90434h0l-.20881,1.0087a3.06433,3.06433,0,0,0,0,.55652,1.77566,1.77566,0,0,0,0,.45218,21.54617,21.54617,0,0,0-.2088,2.15652v2.92174a8.52294,8.52294,0,0,0,0,.93913h0l.2088,1.42609h0l.31321,1.32174.20881.8a3.52682,3.52682,0,0,0,.348,1.07826c.13924.38261.27842.76522.45245,1.18261s.348.8.55684,1.21739.62642,1.18261,1.00925,1.77391v-2.71306a.45147.45147,0,0,0,0-.2087v-.313a5.07324,5.07324,0,0,1,.2088-1.53043c.20881-.52173,0-.27827,0-.41739v-.55652h0l.41761-2.05218.27842-1.32174h0v-.52174h.27843l1.70533.5913h.38282l2.05332.73043h.24365a27.39725,27.39725,0,0,1,3.89783,1.80869,16.97175,16.97175,0,0,0-3.167-5.3913A14.22864,14.22864,0,0,0,620.84436,184.99315Z" transform="translate(0.27119 -0.26271)"/><path class="cls-1" d="M646.28478,346.59315a17.81939,17.81939,0,0,1,15.8002,10.087,16.69985,16.69985,0,0,1,11.55436-12.06957,8.24793,8.24793,0,0,0-6.682-4.69565,9.017,9.017,0,0,0-6.96045,2.36522,10.794,10.794,0,0,0-8.21333-1.0087A8.66355,8.66355,0,0,0,646.28478,346.59315Z" transform="translate(0.27119 -0.26271)"/><path class="cls-1" d="M700.54146,480.81925H700.263l-1.39207-.487-.34805-1.18259V478.941c-2.95821-9.46087-12.18078-16.97393-21.8558-20.86957l-2.22734-.76522c-.76565-.2435-1.53131-.48695-2.297-.66088l-1.18326-.313a34.82,34.82,0,0,0-4.10664-.69564v19.54781l3.02778.313a13.25118,13.25118,0,0,1,2.57538.41738h.55685l1.74011.34784,2.297.5913a55.69819,55.69819,0,0,1,16.94868,7.65216c.76565.52172,1.46168,1.11307,2.19255,1.63479s1.46169,1.04349,2.15772,1.63479a55.65583,55.65583,0,0,1,15.20857,19.82607h16.53106a44.39632,44.39632,0,0,0-26.90212-26.087Z" transform="translate(0.27119 -0.26271)"/><path class="cls-1" d="M707.3975,398.17576l-.174.24348-1.98375,2.05216c-1.25288,1.32173-2.54055,2.60869-3.82827,3.82608a192.96018,192.96018,0,0,1-19.94166,15.61738c-4.35028,3.13044-8.805,6.36523-13.39889,9.913-2.71457,2.12174-5.53354,4.41738-8.38735,6.95652l-2.19245,1.73916A180.49754,180.49754,0,0,0,641.58646,454.454l-1.46169,1.70437-1.49647,1.73913a120.62417,120.62417,0,0,0-9.74464,13.63478c-.522.86956-.97445,1.73913-1.46168,2.60869s-1.00924,1.7739-1.46169,2.67828a84.563,84.563,0,0,0-7.55208,19.86089,55.21756,55.21756,0,0,1,12.42442-11.72172c.76566-.52172,1.53131-.97391,2.297-1.4261s1.5313-.97391,2.33174-1.4261a54.45066,54.45066,0,0,1,14.61693-5.53042l2.297-.487,2.36653-.34784a58.93659,58.93659,0,0,1,6.12517-.52172V449.79322h2.92338a37.64221,37.64221,0,0,1,6.40359.62606,41.78992,41.78992,0,0,1,5.11594,1.21741c.73087.20869,1.46168.487,2.22734.76522s1.46169.52172,2.19256.83481a43.32076,43.32076,0,0,1,22.62145,19.93042c11.72834-20.20869,16.183-51.4087,11.798-83.47826-1.70533,2.43477-3.48023,4.66085-5.22034,6.95652C708.47637,396.78445,707.95435,397.58446,707.3975,398.17576Z" transform="translate(0.27119 -0.26271)"/><path class="cls-1" d="M699.25379,358.00184c-2.54054,2.53914-5.53354,5.32173-8.979,8.27825l-.90484.76522c-1.91413,1.6-3.89783,3.23478-6.05561,4.93912a80.28012,80.28012,0,0,0-9.0486,7.93043c-.522.52175-1.00924,1.04349-1.49647,1.6l-.62642.66088a44.94718,44.94718,0,0,0-3.48022,4.487,45.94366,45.94366,0,0,0-2.95821,4.76523c-.522,1.00869-1.00924,2.05216-1.49647,3.13044a50.44879,50.44879,0,0,0-2.43615,6.95652l-.31321,1.21738a73.83711,73.83711,0,0,0-2.15772,17.39131c1.18327,2.22608,2.33175,4.5913,3.48023,7.16521,1.56609-1.25218,3.09739-2.46956,4.59392-3.47826,3.82826-2.887,7.48246-5.53043,10.9279-8,4.76789-3.47827,9.18779-6.60871,13.32926-9.94783h0a89.59456,89.59456,0,0,0,13.67726-13.287c.522-1.913.97445-3.86087,1.39206-5.84348a11.199,11.199,0,0,1,.38283-1.73913,124.55667,124.55667,0,0,0,1.74011-37.42609c-.90484,1.18259-2.01853,2.53914-3.3062,4.06956l-.62641.73043-1.1137,1.21738c-.41761.45217-.83527.93912-1.3225,1.4261C701.51592,355.741,700.43706,356.854,699.25379,358.00184Z" transform="translate(0.27119 -0.26271)"/><path class="cls-1" d="M635.04368,667.60184a50.40991,50.40991,0,0,0-3.13218-15.89567,51.87951,51.87951,0,0,0-3.167-6.74784,54.95771,54.95771,0,0,0-5.22034-7.65216,51.35886,51.35886,0,0,0-10.82349-9.70433c-.66126-.45219-1.32251-.90432-2.01854-1.32175l-.87006,1.11307-2.993,3.687a355.30127,355.30127,0,0,1-38.28246,38.92174c-2.297,2.05216-4.62871,4.10433-6.96045,6.15654s-4.97669,4.20872-7.55208,6.33046q-6.36882,5.28705-13.22486,10.64347a50.10992,50.10992,0,0,0,3.02778,4.90436c.62641.86957,1.2181,1.73913,1.87929,2.57393s1.35729,1.56521,2.05332,2.33043a49.96034,49.96034,0,0,0,55.68358,13.07824l.45245-.20868-23.52629-26.85224a3.05953,3.05953,0,0,1,0-3.96521,3.47751,3.47751,0,0,1,.3132-.45219,3.064,3.064,0,0,1,2.95822-.55654,3.48049,3.48049,0,0,1,1.46168.86957L609.464,713.09745a49.93731,49.93731,0,0,0,11.972-9.42611l-24.36157-28.2087a3.1784,3.1784,0,0,1,4.73311-4.24343l23.80472,27.44348a49.548,49.548,0,0,0,9.29219-25.21739c0-.93915.174-1.87824.2088-2.81739h0C635.14808,669.54966,635.07846,668.57575,635.04368,667.60184Z" transform="translate(0.27119 -0.26271)"/><path class="cls-1" d="M692.537,320.26271l-3.48023,3.0261-3.48022,2.92172-.59163.45217-1.1137.93912c-2.08815,1.70434-4.17626,3.47826-6.334,5.28694a32.32026,32.32026,0,0,0-4.80273,5.1826,14.19114,14.19114,0,0,1,5.812,8.487h-2.19256c-5.9512.8-10.68431,5.46087-12.63323,13.04348-.3132,1.287-1.00924,4.313-1.00924,4.313s-1.1137-2.9913-1.77489-4.313A17.40286,17.40286,0,0,0,642.24771,349.167a12.90137,12.90137,0,0,1,4.24588-9.07826,58.06943,58.06943,0,0,0-14.75617-14.57392l-2.471-1.63479h0c-1.74011-1.07825-3.48023-2.05216-5.11593-2.95651l-3.48023-1.73913-.522-.27827a62.23844,62.23844,0,0,1-7.90007-4.13909c-.66125,17.66957,2.26212,27.26956,6.26441,34.46958,3.48023,2.22609,6.96045,4.1739,10.78872,6.1913,1.8793,1.0087,3.79343,2.0174,5.70756,3.09565l1.63571.90436a74.33324,74.33324,0,0,1,17.67955,13.63477l1.14848,1.32173a64.49276,64.49276,0,0,1,5.32473,6.95652c.90484,1.35652,1.7749,2.85218,2.61017,4.38262l.20881.38261a58.36837,58.36837,0,0,1,8.14371-10.1913l.76565-.73044a102.16018,102.16018,0,0,1,8.00453-6.95652c3.06261-2.4,5.812-4.69564,8.283-6.95652l1.04407-.90435a136.486,136.486,0,0,0,11.972-12c.27843-1.49566.48723-2.99131.696-4.45217.27842-2.33043.48723-4.6261.59163-6.95653a114.92729,114.92729,0,0,0-2.26213-25.84347s-4.38506,5.21739-4.97669,5.80868A42.74265,42.74265,0,0,1,692.537,320.26271Z" transform="translate(0.27119 -0.26271)"/><path class="cls-1" d="M649.591,637.8627A125.84573,125.84573,0,0,1,625.647,620.854c-1.60093-1.53044-3.0974-3.06089-4.4199-4.55651-.62641-.73046-1.18326-1.4261-1.74011-2.15651l-1.46169,2.19132c-1.2181,1.73913-2.471,3.47826-3.79343,5.287a59.16021,59.16021,0,0,1,6.36882,4.73039,55.65952,55.65952,0,0,1,4.24587,3.89563,56.3639,56.3639,0,0,1,4.62871,5.32174,55.63262,55.63262,0,0,1,11.38034,32.34784l20.67254.62606c-.76565-2.50436-1.46169-4.90436-2.15772-7.2C656.273,650.69749,654.01088,643.01051,649.591,637.8627Z" transform="translate(0.27119 -0.26271)"/><path class="cls-1" d="M690.44883,288.22793a8.69136,8.69136,0,0,1,.80044,3.26958,7.99917,7.99917,0,0,1-4.28066,7.47826,4.41923,4.41923,0,0,0-1.56609,1.32173,4.13649,4.13649,0,0,0-.348,1.66958,7.7548,7.7548,0,0,1-2.8538,5.913,8.49218,8.49218,0,0,1-2.01854,1.113h-.174a7.8344,7.8344,0,0,1-2.74936.52175,8.38971,8.38971,0,0,1-5.53354-2.4,4.14145,4.14145,0,0,0-1.67049-1.07825h-.348a4.66593,4.66593,0,0,0-1.25288.20868,12.46571,12.46571,0,0,1-2.57538.34783c-2.50577,0-3.689-1.6-5.11594-2.43478a8.00813,8.00813,0,0,0-2.26212-.76522,185.115,185.115,0,0,1,2.22734,29.14782,30.61812,30.61812,0,0,1,10.44067-10.01738,43.54238,43.54238,0,0,0-8.24811,13.56522,4.0015,4.0015,0,0,0-2.71457,2.36522,11.17667,11.17667,0,0,1,8.42213-1.70434,33.78025,33.78025,0,0,1,6.12518-6.95652c2.57538-2.22609,5.11593-4.313,7.55208-6.33044l.696-.52174,1.7749-1.49566c2.64495-2.15653,6.22957-5.21739,8.45692-7.37392,4.41989-11.54782,4.31549-27.82609-2.645-38.8174a69.53149,69.53149,0,0,1-1.98375,10.7826A9.98321,9.98321,0,0,1,690.44883,288.22793Z" transform="translate(0.27119 -0.26271)"/><path class="cls-1" d="M584.89364,725.37576H583.432a56.05315,56.05315,0,0,1-30.27794-9.87825l21.995,32.17391h0c-7.23887,10.99132-15.73062,25.77393-17.74916,43.16523A313.82623,313.82623,0,0,0,627.944,744.36709l-20.6377-23.75653A55.71022,55.71022,0,0,1,584.89364,725.37576Z" transform="translate(0.27119 -0.26271)"/><path class="cls-1" d="M664.7996,274.41923a7.86709,7.86709,0,0,1,6.22958,2.85218l.38282-.313a7.17037,7.17037,0,0,1,2.78419-1.6,5.9887,5.9887,0,0,1,1.80973-.27827,8.14222,8.14222,0,0,1,7.96969,6.92173,4.90345,4.90345,0,0,0,.76566,1.94782l.38282.313c8.03931-30.95653-8.77017-47.687-8.77017-47.687a79.48415,79.48415,0,0,1-11.90236,33.35653A44.45887,44.45887,0,0,1,664.7996,274.41923Z" transform="translate(0.27119 -0.26271)"/><path class="cls-1" d="M667.93178,302.10619a10.65415,10.65415,0,0,1,1.91413-.24348,4.90968,4.90968,0,0,1,1.39207.17392c3.0974.8,3.86305,3.47826,6.16,3.47826a4.875,4.875,0,0,0,1.46169-.27826l.38283-.20869a3.26924,3.26924,0,0,0,1.77489-3.16523,4.57281,4.57281,0,0,1,.27843-1.87827,5.80711,5.80711,0,0,1,.73087-1.77392,10.43891,10.43891,0,0,1,3.48022-3.06086,3.78407,3.78407,0,0,0,1.74011-3.37391,3.65085,3.65085,0,0,0-.38282-1.53045,2.85267,2.85267,0,0,0-.80044-.90435,10.44347,10.44347,0,0,0-1.8793-.93912,6.96018,6.96018,0,0,1-2.50576-1.84347c-2.40137-2.95652-.76566-5.94783-4.38507-6.95653a3.48177,3.48177,0,0,0-1.11369-.20868,2.26388,2.26388,0,0,0-.696,0c-1.00924.27826-1.63571,1.21738-2.471,2.12174a2.08377,2.08377,0,0,1,0,.4174,8.97055,8.97055,0,0,1-2.08816,6.50436,6.01615,6.01615,0,0,0-1.2181,2.4,5.14555,5.14555,0,0,0,.348,2.33043,7.85784,7.85784,0,0,1-2.05332,8.90434Zm6.96045-12.31305a2.53913,2.53913,0,1,1-2.54055,2.53914h0a2.53965,2.53965,0,0,1,2.29691-2.53914Z" transform="translate(0.27119 -0.26271)"/><path class="cls-1" d="M712.26985,557.16706a55.69828,55.69828,0,0,1-73.0847,24.83478,90.45332,90.45332,0,0,1-7.93491,9.0435,80.73643,80.73643,0,0,0-6.12517,6.95652,23.75669,23.75669,0,0,0-1.67049,2.46959,14.60349,14.60349,0,0,0-1.2181,2.887,8.7259,8.7259,0,0,0,0,4.73044l.38282,1.32176h0a64.68055,64.68055,0,0,0,13.71209,13.49567l4.14148,3.02607c3.48022,2.43477,7.41289,4.90436,11.86758,7.40871l.62641-.27827c42.52834-14.74784,43.25916-47.47824,86.76195-71.7913A128.8361,128.8361,0,0,0,712.26985,557.16706Z" transform="translate(0.27119 -0.26271)"/><path class="cls-1" d="M534.08235,770.00185l17.71433,16.487a98.156,98.156,0,0,1,11.798-31.86088Q549.18653,762.97572,534.08235,770.00185Z" transform="translate(0.27119 -0.26271)"/><path class="cls-1" d="M379.07321,563.18444,489.814,598.52358a358.06572,358.06572,0,0,1,4.3155-48.69565c1.07886-8.17394,2.12294-16.06955,2.85381-23.75653Z" transform="translate(0.27119 -0.26271)"/><path class="cls-1" d="M532.20305,663.28878l3.48023-2.57393c4.87229-3.82611,9.57061-7.75651,13.92089-11.75654-2.08815-2.67827-4.07185-5.39131-5.9512-8.06959l-1.7749-2.57393-1.70533-2.53912a125.83135,125.83135,0,0,1-20.49851-59.37388,195.65032,195.65032,0,0,1,4.10663-51.16524c-1.91413-2.087-3.75864-4-5.53354-5.77393h0c-.348-.34785-.73087-.69564-1.07886-1.07825l-1.4269-1.39128c-.87006-.86957-1.74012-1.66956-2.57539-2.46959a108.77347,108.77347,0,0,0-9.01377-7.65217,99.87734,99.87734,0,0,1-.38282,10.60871,17.3931,17.3931,0,0,1-.24364,3.47826c-.24364,1.25218,0,2.26085-.27843,3.47826-2.19256,24.34783-7.7261,50.9565-7.37806,76.24347v2.99136a19.09946,19.09946,0,0,0,.174,3.16523h0c.2088,3.16523.48723,6.29565.90484,9.3913.2088,1.63478.45244,3.30433.76565,4.93912a96.43994,96.43994,0,0,0,2.85381,11.75654q.83527,2.67828,1.8793,5.32173a83.05816,83.05816,0,0,0,21.19455,31.0609c1.84451-1.28694,3.689-2.57393,5.49876-3.89563C530.01049,664.854,531.05457,664.08882,532.20305,663.28878Z" transform="translate(0.27119 -0.26271)"/><path class="cls-1" d="M571.7384,626.34967l2.78419-3.23476,2.61016-3.23476h0c.87006-1.07825,1.70533-2.12174,2.471-3.16523s1.60092-2.087,2.297-3.09565a56.13038,56.13038,0,0,0,8.87458-16.10436,171.11759,171.11759,0,0,0-38.56089-88.59131c-.76565-.90433-1.5313-1.66955-2.33174-2.53912l-2.33174-2.53911a80.03628,80.03628,0,0,0-13.60769-11.37393,125.81477,125.81477,0,0,1-1.56609,16.13913c-.174,1.14783-.348,2.29566-.55685,3.47826s-.38283,2.33043-.55685,3.47826q-.73084,4.03477-1.46169,8.13912c-.24364,1.1826-.45244,2.4-.66125,3.47826s-.45244,2.53912-.66125,3.79129a176.56342,176.56342,0,0,0-3.23658,45.21739,118.77206,118.77206,0,0,0,18.61922,55.2l1.60092,2.53911,1.6705,2.46959c1.98375,2.92173,4.14147,5.87827,6.508,8.90434C560.42767,638.62793,566.51806,632.2627,571.7384,626.34967Z" transform="translate(0.27119 -0.26271)"/><path class="cls-1" d="M595.78676,590.8366v.86957h.55684l1.07887-.27827a29.34484,29.34484,0,0,0,8.9442-4.34783c.41761-.27826.73087-.59129,1.11369-.86956a22.26922,22.26922,0,0,0,1.7749-1.39128l.27842-.27827a4.35745,4.35745,0,0,1,.41761-.41738c.73087-.69564,1.42691-1.46086,2.12294-2.22608a33.53731,33.53731,0,0,0,2.40136-3.09565,39.338,39.338,0,0,0,3.167-5.287c.696-1.39129,1.28767-2.74781,1.80973-4.10433l.522-1.28693v-.313q.00869-.17379,0-.34784H617.747a24.13072,24.13072,0,0,0-6.26441.90433,29.84626,29.84626,0,0,0-2.993.93914,26.98124,26.98124,0,0,0-2.88859,1.28694l-.41761.20869a26.82688,26.82688,0,0,0-11.06708,10.19128c0,.66087.38282,2.33043.59163,4.1739S595.61273,589.48008,595.78676,590.8366Z" transform="translate(0.27119 -0.26271)"/><path class="cls-1" d="M622.48007,471.5323a115.65166,115.65166,0,0,0-28.92066-28.487l-3.82826-2.81738c-.27843,6.60867-.93968,13.46085-1.6705,20.62606-.87,9.00868-1.77489,18.22611-1.94891,27.44348v9.774a57.20208,57.20208,0,0,0,.48723,6.4,200.71352,200.71352,0,0,0,16.94867,60.97391h0l.76565-.41737q1.46169-.62607,2.92338-1.14784c1.00924-.34784,1.98375-.69564,2.993-.93914a28.65744,28.65744,0,0,1,5.39436-.90433,55.973,55.973,0,0,1-4.76789-52.93914A86.15647,86.15647,0,0,1,622.48007,471.5323Z" transform="translate(0.27119 -0.26271)"/><path class="cls-1" d="M653.31485,213.82793a43.15234,43.15234,0,0,0-11.34551-27.82608c-.41761.66086-1.74011,3.23478-2.12294,3.86087l-.41761.69565-1.28766,2.22609-1.28767,2.26087-.522,1.07827c-.696,1.39131-1.3225,2.8174-1.91414,4.20869-.348.83479-.696,1.70436-.97445,2.53913s-.696,1.94783-.97446,2.92174a20.59812,20.59812,0,0,0-.48723,2.05217l1.35728.76523a28.46262,28.46262,0,0,1,2.40137,1.56522h0c.66125.487,1.3225,1.0087,1.94891,1.56522a.8003.8003,0,0,0,.24364.24347l1.56609,1.53043a24.61939,24.61939,0,0,1,6.43844,14.8174c.48723.4174.97446.90436,1.46169,1.35652a60.70373,60.70373,0,0,1,2.61016-8.97392,41.962,41.962,0,0,1,2.12294-4.83478C652.584,215.18445,652.96681,214.4888,653.31485,213.82793Z" transform="translate(0.27119 -0.26271)"/><path class="cls-1" d="M654.56773,220.8888c0,.487-.38282.93913-.55685,1.42609a42.17032,42.17032,0,0,0-1.3225,4.03478,52.91136,52.91136,0,0,0-1.67049,7.40868c.48723.66088.97446,1.32173,1.4269,2.05217a28.10372,28.10372,0,0,1,1.49648,2.67824,25.80169,25.80169,0,0,1,1.28766,2.99131,34.41814,34.41814,0,0,1,2.08816,8.76521,20.59775,20.59775,0,0,0,.174,3.23478,35.30114,35.30114,0,0,1,3.3062,5.39132l.348.62608a1.42813,1.42813,0,0,0,0,.313l.522,1.287c.24364.52174.41761,1.04349.62641,1.6l.31321.8h0l.174-.4174.522-1.0087,1.94892-4.06956c.76565-1.53044,1.46169-3.06086,2.08816-4.55651s1.04407-2.43477,1.49647-3.47826a52.84566,52.84566,0,0,0,2.01853-6.95653c3.02778-14.12173-1.46169-31.30434-6.96045-38.67825a144.575,144.575,0,0,0-8.21333,13.913C655.36817,218.97576,654.98534,219.94967,654.56773,220.8888Z" transform="translate(0.27119 -0.26271)"/><path class="cls-1" d="M521.30993,709.54966c4.59393-2.50435,10.05785-5.56524,14.54731-8.313l-1.94891-2.887-1.70528-2.43477-1.74011-2.57394-.76565-1.11307-1.80973-2.64345-1.80974-2.64346-5.42914-7.93043-.62641-.93915c-.83527.52172-1.70533.97391-2.57539,1.46086h-.2088a279.422,279.422,0,0,1-34.28023,16.59132q-3.75864,1.56516-7.62169,2.92173c-31.322,11.44345-64.87137,16.90435-103.74547,17.1478h-3.48022c-39.01328-.24345-72.56263-5.70429-103.88465-17.1478q-3.79341-1.35649-7.6217-2.92173a281.9715,281.9715,0,0,1-34.141-16.59132h-.20882c-.87006-.48695-1.74011-.93914-2.57537-1.46086l-.62645.93915-5.42915,7.93043-1.80972,2.64346-1.80972,2.64345-.73084,1.11307-1.77491,2.57394-1.77491,2.57393-1.94893,2.887c4.4895,2.7478,10.44068,5.94785,15.06938,8.45215a7.33557,7.33557,0,0,0,.696-3.16523c0-2.95654-2.50577-3.65219-1.18328-6.29564s3.13221-1.25218,5.42914-2.67828h.20881a6.95791,6.95791,0,0,0,2.01853-2.4,3.02775,3.02775,0,0,1,2.67976-1.84347c2.88859-.17393,2.61017,2.26085,5.18553,3.47826s4.31547-.38261,5.88159,2.05216a2.88583,2.88583,0,0,1,.55684,1.87824,24.334,24.334,0,0,1-.87,2.9913,5.21393,5.21393,0,0,0,0,1.53045c0,2.92172,2.471,3.47826,1.14848,6.26088s-3.2018,1.21741-5.60316,2.81738a6.40091,6.40091,0,0,0-2.08813,2.50435,267.61166,267.61166,0,0,0,32.22688,13.18259,6.953,6.953,0,0,0,0-3.26958c-.59163-2.887-2.993-3.2-2.12294-6.01737s2.993-1.66955,5.11593-3.687a4.52249,4.52249,0,0,0,1.14848-1.53044,7.44231,7.44231,0,0,1,1.53131-2.74781,2.959,2.959,0,0,1,1.32247-.66088c2.819-.62606,2.92338,1.84348,5.67276,2.713s4.21107-1.07825,6.16,1.11307a2.8165,2.8165,0,0,1,.83525,2.33043,15.9235,15.9235,0,0,0-.41764,3.2,6.74769,6.74769,0,0,0,0,.83481c.62644,2.887,3.02781,3.2,2.15775,6.01737s-2.993,1.70437-5.11593,3.687a6.956,6.956,0,0,0-1.67052,2.713,310.4125,310.4125,0,0,0,33.20136,7.40877,7.19584,7.19584,0,0,0-.27842-3.47826c-1.07886-2.713-3.48022-2.64346-3.06259-5.56524a3.0948,3.0948,0,0,1,.66125-1.63479c.76566-.90433,2.01854-1.07825,3.167-2.12174a4.21028,4.21028,0,0,0,.66125-.69564,5.1119,5.1119,0,0,0,.97446-2.0174c.41764-1.49563.348-2.7478,2.22734-3.47826,2.67976-1.07825,3.167,1.32175,6.0208,1.73913s3.96745-1.73913,6.2296,0,.45242,3.47826,1.4965,6.22606a7.16549,7.16549,0,0,0,1.84451,2.46959,3.12956,3.12956,0,0,1,1.18327,3.09565,3.47616,3.47616,0,0,1,0,.69564c-.41764,1.35652-1.46169,1.70437-2.57536,2.33043a5.324,5.324,0,0,0-1.74011,1.4261,6.95407,6.95407,0,0,0-1.21808,3.02607c6.22961.8,12.52881,1.39128,18.89762,1.84347,3.27142.20869,6.57762.38262,9.88382.52172h5.22034a10.94908,10.94908,0,0,0-.24362-1.98263,4.34626,4.34626,0,0,0-.522-1.28694c-1.42691-2.53912-3.79344-2.12174-3.75865-5.07829s2.36655-2.50435,3.82824-5.07828,0-4.45217,2.36655-5.913,3.48023.45219,5.74238.73046h0c2.471-.27827,3.48022-2.12175,5.74237-.73046s.93965,3.47826,2.40136,5.913,3.79344,2.12174,3.82824,5.07828-2.36655,2.53912-3.79343,5.07829a5.35438,5.35438,0,0,0-.48723,1.28694,11.26408,11.26408,0,0,0-.27842,1.98263h5.22034c3.48022,0,6.61243-.313,9.88382-.52172,6.36881-.45219,12.668-1.04348,18.89761-1.84347a6.95394,6.95394,0,0,0-1.21807-3.02607,5.324,5.324,0,0,0-1.74011-1.4261c-1.11367-.62606-2.12294-.97391-2.57536-2.33043a3.47616,3.47616,0,0,1,0-.69564,3.199,3.199,0,0,1,1.18327-3.09565,6.40051,6.40051,0,0,0,1.84451-2.46959c1.07886-2.7478-.73084-4.4174,1.4965-6.22606s3.48022.34785,6.26441,0,3.3062-2.81738,5.986-1.73913c1.87932.76522,1.8097,2.0174,2.22734,3.47826a5.1119,5.1119,0,0,0,.97446,2.0174,4.21028,4.21028,0,0,0,.66125.69564c1.14848,1.04349,2.40136,1.21741,3.167,2.12174a3.0948,3.0948,0,0,1,.66125,1.63479c.41763,2.92172-1.98373,2.8522-3.02781,5.56524a6.953,6.953,0,0,0-.3132,3.47826,310.4057,310.4057,0,0,0,33.20133-7.54782,6.95635,6.95635,0,0,0-1.67049-2.713c-2.08815-1.98264-4.24588-.86957-5.11593-3.687s1.5313-3.13041,2.15772-6.01738a6.9488,6.9488,0,0,0,0-.8348,18.87337,18.87337,0,0,0-.41761-3.2,2.71209,2.71209,0,0,1,.83527-2.33043c1.91414-2.19132,3.48023-.20869,6.12518-1.11307s2.85381-3.47826,5.67278-2.713a2.9586,2.9586,0,0,1,1.3225.66088,7.44269,7.44269,0,0,1,1.53131,2.7478,5.04279,5.04279,0,0,0,1.14848,1.53044c2.12294,2.0174,4.24588.86957,5.11593,3.68695s-1.49647,3.13042-2.12294,6.01738a6.95255,6.95255,0,0,0,.174,3.26957,281.988,281.988,0,0,0,32.74892-13.32174,6.71381,6.71381,0,0,0-2.08815-2.50435c-2.40137-1.63479-4.35028-.17393-5.60316-2.81739s1.00924-3.47826,1.14848-6.26088a5.2166,5.2166,0,0,0,0-1.53044,23.05014,23.05014,0,0,1-.87006-3.02607,2.78138,2.78138,0,0,1,.55685-1.84347c1.56609-2.46959,3.48022-.76523,5.88158-2.05217s2.297-3.79129,5.18556-3.47826a2.95816,2.95816,0,0,1,2.67978,1.84348,6.50524,6.50524,0,0,0,2.01854,2.36519h.20881c2.297,1.46086,4.17625,0,5.42914,2.713s-1.00925,3.47826-1.18327,6.26088A7.40506,7.40506,0,0,0,521.30993,709.54966Zm-265.36706.45219v.24351a2.64526,2.64526,0,0,1-3.167,1.66955,2.7129,2.7129,0,0,1-1.92712-3.3184q.02142-.08065.04779-.15986h0a.66086.66086,0,0,1,0-.27827,2.68009,2.68009,0,0,1,3.167-1.66955,2.7824,2.7824,0,0,1,1.89937,3.447Q255.95332,709.969,255.94287,710.00185Zm46.35658,13.913a2.74747,2.74747,0,0,1-.55685,1.04349,2.5762,2.5762,0,0,1-2.71457.86956,2.60879,2.60879,0,0,1-1.91413-2.713,1.91134,1.91134,0,0,1,0-.62606h0a2.64429,2.64429,0,0,1,2.01853-1.913,2.19347,2.19347,0,0,1,1.25289,0,2.54047,2.54047,0,0,1,1.46169,1.07825,2.7119,2.7119,0,0,1,.45247,2.29561Zm46.73941,6.46956a2.67988,2.67988,0,0,1-3.24644,1.95414l-.025-.00632a2.74765,2.74765,0,0,1-1.9067-3.38671q.0129-.046.02737-.09155h0a2.645,2.645,0,0,1,3.203-1.93094q.03436.00844.06847.01789a2.74765,2.74765,0,0,1,1.90673,3.3867q-.0129.046-.02738.09156Zm44.68606,1.94782a2.67992,2.67992,0,0,1-3.2651-1.92287l-.00632-.02495a2.74752,2.74752,0,0,1,1.78772-3.45092q.04556-.01441.0916-.02734a2.71488,2.71488,0,0,1,3.42688,1.72942q.02991.09084.05335.18364h0a2.78231,2.78231,0,0,1-1.8344,3.482q-.12522.03885-.25371.06575Zm46.7394-6.50433a2.69111,2.69111,0,0,1-2.71457-4.34783,2.36644,2.36644,0,0,1,1.42691-1.07825,2.29814,2.29814,0,0,1,1.28769,0,2.67922,2.67922,0,0,1,2.01854,1.91306h0a3.79125,3.79125,0,0,1,0,.62606,2.64355,2.64355,0,0,1-2.01854,2.92172Zm46.35658-13.913a2.57559,2.57559,0,0,1-3.13218-1.66955,1.49087,1.49087,0,0,0,0-.24351,2.78235,2.78235,0,0,1,1.85514-3.471l.02416-.00722a2.68007,2.68007,0,0,1,3.167,1.66955v.27827h0a2.74749,2.74749,0,0,1-1.7749,3.4435Z" transform="translate(0.27119 -0.26271)"/><path class="cls-1" d="M540.17274,707.56708l-.80044-1.1826a306.67973,306.67973,0,0,1-51.02009,25.287c-1.07886.41737-2.15772.86956-3.23658,1.25217a329.9162,329.9162,0,0,1-110.49711,20.34785h-9.74461a330.22931,330.22931,0,0,1-110.4971-20.34785c-1.07886-.38261-2.15775-.8348-3.23661-1.25217a309.35756,309.35756,0,0,1-51.02009-25.32179l-.80045,1.18259L193.8209,715.567a325.1556,325.1556,0,0,0,45.24292,23.16523l3.1322,1.32175c1.07887.4522,2.19254.83481,3.27142,1.25218a341.75445,341.75445,0,0,0,123.51314,23.06089h1.77492A341.89344,341.89344,0,0,0,494.26863,741.3062c1.07887-.41737,2.15773-.8,3.23659-1.25218l3.13218-1.32175A323.20956,323.20956,0,0,0,545.88031,715.567Z" transform="translate(0.27119 -0.26271)"/><path class="cls-1" d="M369.607,789.13229c-2.85378,0-3.72384,2.29566-6.19479.8s-.90487-3.47826-2.33174-5.94785-3.79344-2.1565-3.75865-5.113,2.40136-2.50436,3.863-5.04347a7.266,7.266,0,0,0,.80046-3.47826c-12.494-.313-24.814-1.1826-36.89037-2.67828a7.8567,7.8567,0,0,0,.31321,3.47826c1.07886,2.74781,3.48023,2.67828,3.0974,5.6s-2.71457,2.15651-4.48949,4.45217-.48723,4.45217-3.167,5.56524-3.167-1.32175-5.986-1.73913-4.00226,1.7739-6.26441,0-.45242-3.47826-1.53131-6.1913-3.48022-2.64346-3.06259-5.56524,2.67976-2.1565,4.45469-4.48693a7.68444,7.68444,0,0,0,1.28769-3.26957,339.2062,339.2062,0,0,1-37.83-8.59131,7.85654,7.85654,0,0,0-.20881,3.47826c.62644,2.8522,3.02781,3.16523,2.15775,5.98261s-2.993,1.70437-5.08112,3.72177-1.18327,4.27824-3.96746,4.93912-2.92337-1.80871-5.70756-2.67828-4.17626,1.11307-6.1252-1.04348,0-3.47826-.55685-6.4-3.06259-3.16523-2.19253-5.98261,2.993-1.66955,5.11593-3.687a8.06841,8.06841,0,0,0,1.74011-3.02607c-5.67275-1.94782-11.27592-3.96522-16.84427-6.22607l-3.167-1.39133-3.1322-1.32176c-5.39436-2.29566-7.37809-3.09565-12.63322-5.70434a7.64873,7.64873,0,0,0-.80045,3.47826c0,2.95654,2.40137,3.687,1.07888,6.29564s-3.23661,1.14783-5.67277,2.7478-1.91412,4-4.7679,4.17391-2.57538-2.33043-5.11594-3.47827-4.35028.313-5.88157-2.1565.69605-3.47826.55683-6.4-2.43616-3.65218-1.07887-6.29564,3.23661-1.11307,5.67277-2.713a7.82772,7.82772,0,0,0,2.22734-2.6087c-4.6983-2.60869-12.668-6.95652-17.40112-9.70432l-17.0879,25.04347a399.04689,399.04689,0,0,0,37.27321,19.513l3.0974,1.39129,3.0626,1.39128a374.75623,374.75623,0,0,0,150.38046,32h5.77719a374.61663,374.61663,0,0,0,150.38046-32.0348l3.0974-1.39129,3.06261-1.39128a399.62278,399.62278,0,0,0,37.134-19.61739l-17.1227-25.04347c-4.55908,2.81739-12.98122,7.54782-17.67954,10.15652a7.82746,7.82746,0,0,0,2.22734,2.60869c2.43615,1.6,4.35028,0,5.67278,2.74781s-.97446,3.47826-1.07886,6.26088,2.08816,3.93045.55685,6.4-3.48023.8-5.88159,2.15651-2.22734,3.79129-5.11593,3.47826-2.33174-2.57393-4.76789-4.1739-4.35028,0-5.67278-2.713.97446-3.47826,1.11369-6.29565a8.17013,8.17013,0,0,0-.83527-3.47826c-5.25512,2.6087-6.96045,2.95655-12.18078,5.25216l-3.13218,1.32175-3.167,1.32176c-5.53354,2.26085-11.17154,4.27825-16.80949,6.22606a7.61667,7.61667,0,0,0,1.74012,3.02607c2.08815,2.0174,4.24587.86957,5.08115,3.687s-1.53131,3.13042-2.15773,5.98262,1.39207,4.24348-.55684,6.4-3.48023.17393-6.16,1.04349-2.8886,3.47826-5.67279,2.67828-1.87929-2.95655-3.96745-4.93913-4.28066-.90433-5.11593-3.72176,1.5313-3.13042,2.19256-5.98261a7.33479,7.33479,0,0,0-.24365-3.47827,340.35543,340.35543,0,0,1-37.79525,8.73047,7.58,7.58,0,0,0,1.25288,3.26958c1.77492,2.33043,4.07185,1.53044,4.45468,4.48693s-1.98373,2.81738-3.06259,5.56524.73085,4.38259-1.5313,6.1913-3.48023-.34785-6.22961,0-3.48022,2.81738-6.0208,1.73913-1.39209-3.23476-3.167-5.56524-4.07186-1.53044-4.45469-4.45217,1.98373-2.8522,3.06259-5.6a7.85657,7.85657,0,0,0,.31321-3.47826c-12.07638,1.49562-24.36157,2.36519-36.89037,2.67827a7.26594,7.26594,0,0,0,.80047,3.47826c1.46168,2.53912,3.82824,2.087,3.863,5.04347s-2.36656,2.53912-3.75865,5.11305,0,4.45217-2.33175,5.94785-3.48022-.8348-6.19479-.8Zm-134.0234-29.6348a2.67977,2.67977,0,0,1-3.22662,1.98661q-.12856-.03048-.2536-.07356a2.71291,2.71291,0,0,1-1.92712-3.3184q.02143-.08064.0478-.15986h0a2.71394,2.71394,0,0,1,1.98372-1.87823,3.20379,3.20379,0,0,1,1.2877,0,2.78262,2.78262,0,0,1,2.11924,3.31659Q235.60061,759.43442,235.58359,759.49749Zm54.46551,17.80868a2.645,2.645,0,0,1-3.20294,1.93094q-.03437-.00844-.06848-.01789a2.7129,2.7129,0,0,1-1.92711-3.3184q.02142-.08064.04779-.15986h0A2.645,2.645,0,0,1,288.1013,773.81q.03437.00845.06848.01789a2.67816,2.67816,0,0,1,1.9478,3.24909Q290.08847,777.19307,290.0491,777.30617Zm55.37035,9.0435a2.67978,2.67978,0,0,1-3.22663,1.98661q-.12856-.03048-.2536-.07356a2.7129,2.7129,0,0,1-1.92711-3.3184q.02142-.08064.04779-.15986h0a2.67978,2.67978,0,0,1,3.22663-1.98661q.12856.03048.25359.07356a2.7129,2.7129,0,0,1,1.92712,3.3184Q345.44582,786.27045,345.41945,786.34967Zm52.58618,1.98263a2.74965,2.74965,0,0,1-3.44687-1.7982q-.01792-.05708-.03335-.11485a2.78232,2.78232,0,0,1,1.85513-3.471l.02419-.00722a2.71488,2.71488,0,0,1,3.42688,1.72942q.02991.09082.05335.18363h0a2.71284,2.71284,0,0,1-1.84569,3.36431l-.03364.00956Zm54.98755-9.0435a2.67992,2.67992,0,0,1-3.27126-1.91236l-.00016-.00069a2.78235,2.78235,0,0,1,1.85513-3.471l.02417-.00722a2.74953,2.74953,0,0,1,3.3062,1.913h0a2.74765,2.74765,0,0,1-1.91408,3.37392Zm53.42145-17.3913a2.64517,2.64517,0,0,1-3.25352-1.84464q-.00939-.03408-.01789-.06842a2.71267,2.71267,0,0,1,1.71934-3.43049q.07926-.02635.16-.04777a2.19364,2.19364,0,0,1,1.25289,0,2.64449,2.64449,0,0,1,2.01853,1.84348h0a2.74836,2.74836,0,0,1-1.87935,3.65218Z" transform="translate(0.27119 -0.26271)"/><path class="cls-1" d="M489.50069,605.02791c-21.647-5.73911-36.57713-2.9913-49.976-.48695a99.17043,99.17043,0,0,1-24.01355,2.46959,84.0548,84.0548,0,0,1-25.0576-4.48694,57.105,57.105,0,0,0-20.39412-3.47826H369.433a57.24452,57.24452,0,0,0-20.39411,3.47826,83.74042,83.74042,0,0,1-25.02282,4.48694,99.44988,99.44988,0,0,1-24.04836-2.46959c-13.39886-2.50435-28.329-5.25216-49.976.48695h-.45242a81.64835,81.64835,0,0,1-.80047,9.84349,117.13935,117.13935,0,0,1,48.96675.69564,104.04543,104.04543,0,0,0,24.01355,2.4,87.25867,87.25867,0,0,0,24.9532-4.27825,67.82906,67.82906,0,0,1,22.69105-3.47826h.76565a67.82914,67.82914,0,0,1,22.691,3.47826,87.57131,87.57131,0,0,0,24.988,4.27825,104.04543,104.04543,0,0,0,24.01355-2.4,116.96511,116.96511,0,0,1,48.93194-.69564c-.38283-3.26958-.62641-6.53915-.76565-9.84349Z" transform="translate(0.27119 -0.26271)"/><path class="cls-1" d="M416.69442,591.28879H414.6411a80.8169,80.8169,0,0,1-24.57037-4.52175,56.40735,56.40735,0,0,0-20.0461-3.47826h-.522a56.47752,56.47752,0,0,0-20.08088,3.47826,80.573,80.573,0,0,1-24.57037,4.52175H322.798a118.39229,118.39229,0,0,1-20.88134-2.78262l-26.72812,8.52173a139.286,139.286,0,0,1,25.78847,2.99131,93.635,93.635,0,0,0,22.96947,2.4,79.35536,79.35536,0,0,0,23.80469-4.24349,61.66713,61.66713,0,0,1,21.7514-3.47826h.76565a61.66709,61.66709,0,0,1,21.7514,3.47826,79.38949,79.38949,0,0,0,23.87434,4.24349,93.53079,93.53079,0,0,0,22.93466-2.4,139.773,139.773,0,0,1,25.78847-2.99131l-26.69331-8.52173A119.29578,119.29578,0,0,1,416.69442,591.28879Z" transform="translate(0.27119 -0.26271)"/><path class="cls-1" d="M442.69169,651.01053a94.01774,94.01774,0,0,1-25.162,2.85219,80.08483,80.08483,0,0,1-26.17127-5.18262,55.43338,55.43338,0,0,0-21.299-3.79129H369.433a55.43338,55.43338,0,0,0-21.299,3.79129,79.70156,79.70156,0,0,1-26.17127,5.18262,93.7022,93.7022,0,0,1-25.12722-2.85219c-15.7306-3.23476-33.51454-6.95653-61.04313,3.47826a86.96005,86.96005,0,0,1-9.849,13.6c24.36157-6.95652,49.52357-9.25219,69.08244-5.87827a112.19455,112.19455,0,0,0,24.8836,2.4,94.01381,94.01381,0,0,0,25.96247-4.27825A73.47187,73.47187,0,0,1,369.5374,656.854h.62644a73.12366,73.12366,0,0,1,23.66553,3.47826,94.01387,94.01387,0,0,0,25.96247,4.27825,111.987,111.987,0,0,0,24.9532-2.4c19.55887-3.47826,44.82527-1.14783,69.08244,5.87827a89.152,89.152,0,0,1-10.02307-13.42609C476.17143,644.15835,458.42232,647.77577,442.69169,651.01053Z" transform="translate(0.27119 -0.26271)"/><path class="cls-1" d="M515.46318,673.27143c-35.91593-11.09566-62.644-7.9652-70.05692-6.64349a117.382,117.382,0,0,1-25.96246,2.46958,96.90383,96.90383,0,0,1-27.04133-4.48693,68.35252,68.35252,0,0,0-22.37784-3.47826h-.522a68.42188,68.42188,0,0,0-22.41265,3.47826,96.90423,96.90423,0,0,1-27.18054,4.48688,117.38136,117.38136,0,0,1-25.96246-2.46959c-7.55208-1.32175-34.141-4.45217-70.0569,6.64349q7.83051,4.55655,15.76541,8.45215c27.59818-9.49564,45.24291-6.26088,61.00832-3.30434a97.1165,97.1165,0,0,0,22.96947,2.4,80.08509,80.08509,0,0,0,23.83953-4.27824,61.73681,61.73681,0,0,1,21.78621-3.47826h.696a61.73681,61.73681,0,0,1,21.78621,3.47826,80.08623,80.08623,0,0,0,23.87434,4.27824,96.62708,96.62708,0,0,0,22.93466-2.4c15.69579-2.95654,33.41017-6.1913,61.00832,3.30434Q507.63271,677.828,515.46318,673.27143Z" transform="translate(0.27119 -0.26271)"/><path class="cls-1" d="M412.03093,702.03661a79.59843,79.59843,0,0,1-23.1783-4.0348,55.71211,55.71211,0,0,0-18.79322-2.95654H369.433a55.712,55.712,0,0,0-18.79321,2.95654,79.07571,79.07571,0,0,1-23.17828,4.0348,93.39215,93.39215,0,0,1-22.23863-2.22609,116.50851,116.50851,0,0,0-26.51931-2.53911,305.58613,305.58613,0,0,0,89.30255,12.55652h3.48023a305.584,305.584,0,0,0,89.30253-12.66087,116.7214,116.7214,0,0,0-26.51932,2.53912A93.21527,93.21527,0,0,1,412.03093,702.03661Z" transform="translate(0.27119 -0.26271)"/><path class="cls-1" d="M493.92059,684.61054c-23.97874-7.30437-39.95295-4.34783-54.22189-1.70437a98.99647,98.99647,0,0,1-24.01355,2.46959,82.90638,82.90638,0,0,1-25.0576-4.48693,57.9058,57.9058,0,0,0-20.39412-3.47826H369.607a58.04429,58.04429,0,0,0-20.39411,3.47826,82.87028,82.87028,0,0,1-25.19681,4.59127,99.09917,99.09917,0,0,1-24.04834-2.46959c-14.2341-2.64345-30.24315-5.6-54.18708,1.70437q10.96273,5.11311,22.23863,9.113a105.3,105.3,0,0,1,38.03885,1.6,92.93777,92.93777,0,0,0,21.19455,2.15651,76.36072,76.36072,0,0,0,22.02982-3.82611,58.04437,58.04437,0,0,1,20.11569-3.2h.696a58.42826,58.42826,0,0,1,20.1505,3.2,75.87432,75.87432,0,0,0,22.02982,3.82611,92.83414,92.83414,0,0,0,21.15977-2.15651,105.3,105.3,0,0,1,38.03885-1.6Q482.7491,689.68886,493.92059,684.61054Z" transform="translate(0.27119 -0.26271)"/><path class="cls-1" d="M417.56447,622.87141a90.532,90.532,0,0,1-26.10168-4.48694,62.46751,62.46751,0,0,0-21.36857-3.47826h-.696a62.22407,62.22407,0,0,0-21.33376,3.47826,90.74114,90.74114,0,0,1-26.13649,4.48694,109.79345,109.79345,0,0,1-25.0576-2.46959,111.7417,111.7417,0,0,0-48.72314-.38261c-.62644,3.89563-1.4269,7.72174-2.43614,11.54785,22.343-5.287,37.96925-2.53912,52.20335,0a105.57863,105.57863,0,0,0,24.01355,2.4,87.04952,87.04952,0,0,0,24.9532-4.27825,67.133,67.133,0,0,1,22.79548-3.47826h.55685a66.95873,66.95873,0,0,1,22.79547,3.47826,87.57144,87.57144,0,0,0,24.988,4.27825,105.95933,105.95933,0,0,0,24.01355-2.4c13.92092-2.53912,29.6515-5.287,52.02936,0a101.65828,101.65828,0,0,1-2.43614-11.54785,111.88079,111.88079,0,0,0-48.72314.38261A109.79114,109.79114,0,0,1,417.56447,622.87141Z" transform="translate(0.27119 -0.26271)"/><path class="cls-1" d="M442.6221,635.88012a109.82609,109.82609,0,0,1-25.0576,2.50435,91.71616,91.71616,0,0,1-26.10168-4.48693,62.67548,62.67548,0,0,0-21.43816-3.47826h-.55685a62.36174,62.36174,0,0,0-21.40338,3.47826,92.03031,92.03031,0,0,1-26.13649,4.48693,109.826,109.826,0,0,1-25.0576-2.50435c-13.9209-2.50435-29.86033-5.287-52.76021.62606a93.67131,93.67131,0,0,1-4.94191,12c25.89287-8.66089,43.18959-5.14781,58.57217-1.98263a90.81349,90.81349,0,0,0,23.94393,2.78262,76.21946,76.21946,0,0,0,24.91839-4.93913,59.19308,59.19308,0,0,1,22.83026-4.06955h.62644a59.50714,59.50714,0,0,1,22.86507,4.06955,75.73086,75.73086,0,0,0,24.88361,4.93913,90.53393,90.53393,0,0,0,23.94393-2.78262c15.38258-3.16523,32.6793-6.67826,58.57217,1.98263a93.67131,93.67131,0,0,1-4.94191-12C472.4824,630.59315,456.717,633.30619,442.6221,635.88012Z" transform="translate(0.27119 -0.26271)"/><path class="cls-1" d="M498.09685,506.83662V495.39317l9.22257,6.74783a115.41844,115.41844,0,0,1,11.972,10.43479c.83527.8,1.67049,1.6,2.50576,2.46958l2.471,2.50436.55684.59129v-.8l.62642-3.47826c.2088-1.1826.348-2.29567.55685-3.47826a134.64163,134.64163,0,0,0,1.98375-18.26087l.24364-10.43479,8.70056,5.53043a89.0806,89.0806,0,0,1,16.73987,14.33041l26.83255-8.45214a1.66851,1.66851,0,0,0,0-.41738l-43.01557-18.29563h0l-11.17159-4.55662-10.78872,7.23479-47.26144-29.28695-7.72605,8.13912-90.799-93.18262h0L278.982,455.91489l-7.79569-8.31305-47.22664,29.18261-10.75389-6.95652-11.34552,4.83478h0l-43.05038,18.12176v.41738l26.86733,8.45214a87.8983,87.8983,0,0,1,16.70507-14.33041l8.73536-5.53042.24361,10.43478a140.1333,140.1333,0,0,0,1.94893,18.26087c.20882,1.14783.38283,2.26085.55684,3.47826l.62644,3.47826a5.45759,5.45759,0,0,1,0,.8l.55684-.59129,2.47095-2.50436,2.50577-2.46958a119.21085,119.21085,0,0,1,11.972-10.43479l9.25741-6.74783v11.44345c0,4.06956.24361,8.27828.55685,12.487L369.607,559.63654h0l127.82863-40.20868C497.85326,515.04532,498.09685,510.90618,498.09685,506.83662Z" transform="translate(0.27119 -0.26271)"/><path class="cls-1" d="M506.44942,52.64532A280.1062,280.1062,0,0,0,371.76474,16.74967h-4.03707A280.10627,280.10627,0,0,0,232.90381,52.64532a330.97878,330.97878,0,0,0-103.78028,91.96522l2.85379,4.93912c.348-.41739.66124-.90434,1.00927-1.35652a334.04383,334.04383,0,0,1,102.9798-90.22608A273.42228,273.42228,0,0,1,367.72767,23.42793h4.03707A273.4223,273.4223,0,0,1,503.526,57.96706a334.32276,334.32276,0,0,1,103.15378,90.22608c.31321.45218.62641.93913.97446,1.35652l2.71457-4.93912A330.979,330.979,0,0,0,506.44942,52.64532Z" transform="translate(0.27119 -0.26271)"/><path class="cls-1" d="M498.47968,68.64532A261.13028,261.13028,0,0,0,370.40743,34.2801H369.085A261.13031,261.13031,0,0,0,241.01273,68.64532a312.22949,312.22949,0,0,0-91.04266,78.85218,24.33429,24.33429,0,0,1,.59163,7.79131,313.89862,313.89862,0,0,1,93.444-81.35653A255.49066,255.49066,0,0,1,369.085,40.92358h1.32248a255.59528,255.59528,0,0,1,125.28808,33.0087,314.17642,314.17642,0,0,1,93.23517,81.35652,25.44655,25.44655,0,0,1,.59163-7.79131A311.777,311.777,0,0,0,498.47968,68.64532Z" transform="translate(0.27119 -0.26271)"/><path class="cls-1" d="M491.86727,84.99315a243.72046,243.72046,0,0,0-121.077-33.113h-2.15775A243.72039,243.72039,0,0,0,247.59036,84.99315a293.289,293.289,0,0,0-91.49509,82.99131,27.466,27.466,0,0,1-3.23661,13.14782s3.93266-5.3913,6.36882-8.62609a301.43308,301.43308,0,0,1,91.42546-82.26087A237.97644,237.97644,0,0,1,368.63253,58.52358h2.08813A237.97635,237.97635,0,0,1,488.76982,90.24532a301.95567,301.95567,0,0,1,91.6343,82.36522c2.40136,3.23478,6.334,8.62608,6.334,8.62608a27.81377,27.81377,0,0,1-3.48022-13.25218A293.53216,293.53216,0,0,0,491.86727,84.99315Z" transform="translate(0.27119 -0.26271)"/><path class="cls-1" d="M369.74621,733.48011a5.14784,5.14784,0,1,0,5.15074,5.14782h0A5.14927,5.14927,0,0,0,369.74621,733.48011Z" transform="translate(0.27119 -0.26271)"/><path class="cls-1" d="M417.70368,730.03662a5.14784,5.14784,0,1,0,5.15085,5.1477l-.0001-.03466a5.11445,5.11445,0,0,0-5.1158-5.11315Z" transform="translate(0.27119 -0.26271)"/><path class="cls-1" d="M465.03472,719.35838a5.14784,5.14784,0,1,0,5.15072,5.14787v-.00006a5.11444,5.11444,0,0,0-5.08089-5.14781Q465.06958,719.35814,465.03472,719.35838Z" transform="translate(0.27119 -0.26271)"/><path class="cls-1" d="M528.4444,747.53226a5.14782,5.14782,0,1,0-5.11582-5.18246l-.00011.03465A5.14923,5.14923,0,0,0,528.4444,747.53226Z" transform="translate(0.27119 -0.26271)"/><path class="cls-1" d="M472.30838,762.7323a5.15074,5.15074,0,1,0,5.15077-5.14781h-.00006A5.14924,5.14924,0,0,0,472.30838,762.7323Z" transform="translate(0.27119 -0.26271)"/><path class="cls-1" d="M418.12132,775.08008a5.15073,5.15073,0,1,0,5.18529-5.113q-.03465-.00024-.06936,0a5.11449,5.11449,0,0,0-5.11593,5.113Z" transform="translate(0.27119 -0.26271)"/><path class="cls-1" d="M364.56068,778.941a5.15073,5.15073,0,1,0,5.15064-5.14792l-.03471.0001a5.11451,5.11451,0,0,0-5.116,5.11295Z" transform="translate(0.27119 -0.26271)"/></svg>